/* XPM */
static char *result[] = {
/* columns rows colors chars-per-pixel */
"64 64 256 2 ",
"   c #1C3F10",
".  c #094802",
"X  c #154B04",
"o  c #0A5403",
"O  c #195703",
"+  c #275012",
"@  c #196603",
"#  c #276705",
"$  c #287805",
"%  c #347607",
"&  c #346914",
"*  c #387715",
"=  c #3E5E23",
"-  c #3D6321",
";  c #447A14",
":  c #58412F",
">  c #5E4532",
",  c #485C33",
"<  c #614733",
"1  c #644A35",
"2  c #684C37",
"3  c #664C39",
"4  c #694E39",
"5  c #685538",
"6  c #6C513C",
"7  c #71543E",
"8  c #715C3D",
"9  c #526F2E",
"0  c #6B6334",
"q  c #73693C",
"w  c #667834",
"e  c #78773B",
"r  c #6E5542",
"t  c #6F5B42",
"y  c #725641",
"u  c #735A44",
"i  c #745D4B",
"p  c #795E49",
"a  c #576740",
"s  c #686C48",
"d  c #786548",
"f  c #7A7645",
"g  c #7B6552",
"h  c #7C6C56",
"j  c #777357",
"k  c #847B36",
"l  c #837A4A",
"z  c #826D5A",
"x  c #84745B",
"c  c #887865",
"v  c #2D8103",
"b  c #388806",
"n  c #399304",
"m  c #3A8A14",
"M  c #458908",
"N  c #439404",
"B  c #499808",
"V  c #559B07",
"C  c #468915",
"Z  c #528E13",
"A  c #4A9614",
"S  c #569B17",
"D  c #669813",
"F  c #649C1B",
"G  c #5AA707",
"H  c #52A907",
"J  c #5CA515",
"K  c #5DA41B",
"L  c #66AA0A",
"P  c #75AD0B",
"I  c #64B203",
"U  c #6CB603",
"Y  c #6CB40B",
"T  c #6CB808",
"R  c #75BA0A",
"E  c #63A414",
"W  c #67A918",
"Q  c #64AC1C",
"!  c #74AB19",
"~  c #6CB313",
"^  c #69B519",
"/  c #6DB41B",
"(  c #72B415",
")  c #75BB13",
"_  c #73B41B",
"`  c #78B819",
"'  c #7CBC1C",
"]  c #579126",
"[  c #679A26",
"{  c #72922D",
"}  c #6A8636",
"|  c #798539",
" . c #5FA824",
".. c #65AB23",
"X. c #6BAB23",
"o. c #68A529",
"O. c #73AC22",
"+. c #75AA29",
"@. c #6CB225",
"#. c #77B427",
"$. c #75B923",
"%. c #7BBA23",
"&. c #7BB42C",
"*. c #7BBA2B",
"=. c #6BA934",
"-. c #78AB35",
";. c #6EB131",
":. c #78B636",
">. c #7CB43C",
",. c #7AC207",
"<. c #7CC116",
"1. c #7EC029",
"2. c #7F8349",
"3. c #7BA44A",
"4. c #7DB744",
"5. c #80B90C",
"6. c #84BC19",
"7. c #858B32",
"8. c #86983A",
"9. c #A9853C",
"0. c #83BD22",
"q. c #87B728",
"w. c #88B129",
"e. c #83BC2B",
"r. c #8BBE2C",
"t. c #89A738",
"y. c #83BB34",
"u. c #89BA36",
"i. c #82B53B",
"p. c #83BC3B",
"a. c #93B83A",
"s. c #B0A23C",
"d. c #CDB837",
"f. c #87CA09",
"g. c #8DD10A",
"h. c #83C214",
"j. c #8ACA17",
"k. c #84C21D",
"l. c #8BC41C",
"z. c #94CB18",
"x. c #9BD418",
"c. c #84C122",
"v. c #8AC627",
"b. c #8BC32B",
"n. c #93C926",
"m. c #95CC2B",
"M. c #97D128",
"N. c #8BC333",
"B. c #8AC735",
"V. c #8BC43B",
"C. c #92C433",
"Z. c #93CA33",
"A. c #9ACC37",
"S. c #93C43C",
"D. c #94C93B",
"F. c #9ED338",
"G. c #A3D43B",
"H. c #AAD23A",
"J. c #A8D539",
"K. c #868747",
"L. c #8E914F",
"P. c #8D9555",
"I. c #939657",
"U. c #89AC44",
"Y. c #95AA4A",
"T. c #84BB42",
"R. c #8AB947",
"E. c #84BB4C",
"W. c #97BB47",
"Q. c #94A657",
"!. c #88B655",
"~. c #99B855",
"^. c #ABB249",
"/. c #A2BB54",
"(. c #868168",
"). c #8C826C",
"_. c #918667",
"`. c #989A68",
"'. c #918871",
"]. c #AF9766",
"[. c #9CB964",
"{. c #ACB272",
"}. c #8DC342",
"|. c #8AC14B",
" X c #93C544",
".X c #94C943",
"XX c #93C54B",
"oX c #98C848",
"OX c #9BCB4B",
"+X c #9AD245",
"@X c #8EC254",
"#X c #97C557",
"$X c #96CA54",
"%X c #9CCB55",
"&X c #9BCB5C",
"*X c #9FD151",
"=X c #A2C849",
"-X c #A6D549",
";X c #B5D949",
":X c #A3CD53",
">X c #A8C956",
",X c #A4CC5D",
"<X c #B1CE5F",
"1X c #A3D252",
"2X c #A8D65A",
"3X c #ACD35D",
"4X c #B6DB58",
"5X c #9AC864",
"6X c #9FC77F",
"7X c #A4CC65",
"8X c #B4CD69",
"9X c #ABD465",
"0X c #A8D466",
"qX c #ADD56C",
"wX c #B3D463",
"eX c #B7D868",
"rX c #BBDD6C",
"tX c #A7CA74",
"yX c #B5C976",
"uX c #ACD375",
"iX c #B7D575",
"pX c #B4DA74",
"aX c #BADB74",
"sX c #B5DA7B",
"dX c #BBDC7A",
"fX c #BEE068",
"gX c #BFE27A",
"hX c #D5D15A",
"jX c #E3C542",
"kX c #C6C56E",
"lX c #C3DA78",
"zX c #C2E061",
"xX c #C5E377",
"cX c #B2B486",
"vX c #B5C985",
"bX c #B3D685",
"nX c #BCDD83",
"mX c #BDDC8A",
"MX c #BCDA96",
"NX c #BDE087",
"BX c #C4DB88",
"VX c #CFD590",
"CX c #C7DA98",
"ZX c #C3E183",
"AX c #C4E28B",
"SX c #CCE38A",
"DX c #C5E293",
"FX c #CAE494",
"GX c #C7E39A",
"HX c #CBE59B",
"JX c #D3E895",
"KX c #CCE5A3",
"LX c #CFE9A5",
"PX c #D8E8AA",
"IX c #E4E7B9",
"UX c #EBF2CE",
/* pixels */
"4 < > > 1 1 2 < 1 4 < < > < 2 2 > 2 2 < < > < 2 2 > 2 2 > > > 1 2 2 > 4 1 < > < 1 2 1 < 4 1 > > < 1 2 < < 4 1 < > < 1 4 < 1 4 < ",
"2 1 1 1 2 4 1 1 < 2 < < 1 2 2 2 1 1 2 < < 1 2 2 1 1 < 2 < 1 1 2 2 1 1 1 2 < < 1 2 2 2 < 1 1 < < 2 2 2 2 < 1 1 1 < 2 2 2 1 1 1 < ",
"< < < 2 4 2 1 4 1 < < < 2 2 1 1 4 1 1 < < 2 2 1 2 4 < 1 < 1 2 2 1 1 4 < 1 < 2 2 4 1 2 2 1 1 > 2 2 2 1 4 3 < < < 2 2 2 1 6 1 < 1 ",
"4 2 2 7 4 4 4 2 1 6 2 4 7 4 2 r 1 1 6 < 6 7 7 2 6 1 2 7 1 6 7 6 4 7 1 4 4 < 7 7 4 2 d 2 f l 2 7 7 4 4 6 3 6 4 3 7 6 4 6 6 1 6 4 ",
"4 2 1 4 4 2 4 1 3 2 1 3 6 2 2 2 1 3 4 1 2 6 6 1 4 u d 4 1 2 6 2 3 3 1 2 4 1 2 4 2 d Y.8.a.t.L.l 7 1 2 3 3 4 4 < 4 4 1 4 1 1 4 2 ",
"2 1 2 1 3 3 2 4 < 3 1 2 1 2 1 3 1 1 3 1 4 1 1 1 { ! U.Y.8 2 1 1 1 6 1 2 2 2 2 1 2 I.>XoX=Xa.=XyX4 1 3 4 1 3 < 4 1 4 1 3 6 1 2 < ",
"< 2 2 3 y 2 1 < < < 2 2 2 y 2 1 1 < < 2 2 4 u 1 ~.L V.:Xd 2 6 7 3 1 < > 1 2 1 u L.=X=X9X,X>XuX8 y 4 2 1 > < 3 4 1 y 2 2 1 < < 1 ",
"< < < 1 1 > 1 1 < < 1 < 1 1 > 1 < < < 1 1 0 8.I.9XN.S.K.1 < 2 > < 1 > 1 < 1 > x bXqX:XuXuXuX`.1 2 > < 3 < < < < < 2 > < 2 < < 1 ",
"1 > < 1 < 2 4 2 1 1 > < 1 < 4 6 1 1 > Q.{.t.' ( Z.$.U.8 < < < 1 4 6 1 2 > < 5 Q.,XtXuXnXMXmX`.1 < 1 4 4 1 1 > 1 1 < 1 y 2 1 1 > ",
"1 1 < < 1 2 < < : 1 1 < 1 1 1 < > : 3 Q.tXL ~ ' 1X$XY.d 4 < 1 u 6 6 > : 1 1 2.Y.! >.5XMXGXMXFX6 1 2 1 < > < 1 < < 1 2 < > : < 1 ",
"< 1 1 1 2 1 2 2 3 3 1 1 1 2 1 1 6 1 3 | { D i.1XAX0XtXI.L.4 k /.I.I.d 5 1 1 1 2 0 { >.uXMXMXnXd 3 2 1 3 2 < 1 1 1 1 3 1 4 1 1 1 ",
": < 2 1 1 2 < 1 > : < 1 1 1 2 1 1 > 5 a.e 7.OXwXGXuXdXwX4X8 ^.-X:X3XI.e > 2 3 0 5 f -.!.bXMXyX> < 2 < 3 < > > 1 1 1 3 1 3 > > < ",
"> < < 1 1 1 > > : > < < 1 1 1 > > > 1 K.m.N.c.F.nXNXnXgX8X1 /.D.C.7XQ.2.> 1 f O.[ w 3.;.uXMXbX3 1 4 > > > : < < 1 1 4 > > : > < ",
"2 1 < < 1 1 2 < 2 2 < < < 2 2 1 q k 2 5 /.1XB.1.*XNXsXnXL.5 A.O.J *.5X[.L.5 q _ V S 3.=.1.bXMX`.1 2 3 < 1 4 1 > < 1 1 3 < 1 2 < ",
"4 < < 1 1 2 2 1 < 2 < < 1 1 y t.w.{ 6 1 I.nXqXZ.v.*XpXuX8 2 a.| 6.B R.7X,Xd 6 %.N b =.4. .|.bXMXy 1 4 1 < 2 1 < 1 1 2 3 < < 2 1 ",
"< < < 1 2 2 1 2 < 1 < < 1 d t.i.6.! 0 L.aXDXaX9XB.Z.9XNXyX>X+.e w.+.n =.5Xf !.G b b ] =. ...&XMXcX4 1 4 1 < < < 1 2 4 1 4 1 < < ",
"2 2 1 7 4 2 4 4 1 4 2 4 7 e 6.E l.5. X{.G.G.4X9XZ.D.1XxXZX1XN.~.>.;.H T.0XsXm v v v A S Y ..XXMXMX'.4 6 1 6 4 1 7 6 4 2 4 3 4 4 ",
"4 1 1 y 6 4 4 1 1 6 1 2 6 7.C.r.' ) ) h.) v.-XF.+XB.*X2X+XqX$X4.J :.@X&X0X5XbX$ @ @ v Q N B Q 5XMXbX_.r < 6 2 < 7 4 4 6 3 1 4 3 ",
"4 1 2 1 1 1 2 2 1 4 1 1 q t.r.r.u.*.' ' ' m.Z.v.*X1.D.2X.X^ 5X..p.|.5X5X$XuXNX&Xm m J 1.m A B  .tXbXpXP.3 5 2 1 1 1 1 3 4 3 4 3 ",
"1 1 4 1 y 4 4 1 > 1 1 6 Y.n.r.r.S.u.*.' <.k.B.B..XV..X0X$X$.uX;.4.:.E.5X&X.XqX0X5X4...<.+X:.B B =.@X7XsXh 1 1 5 2 y 4 4 3 > < < ",
"< 1 1 1 4 < 1 1 > 1 3 1 W.W.XXC. XV.b.*.c.<.c.D.1.N..XqX0X;.&X@X4.4. .*.$X1.1.*X5X@XH <.-X;.n n N  .:.5XvX5 3 1 1 4 < < 1 < < 3 ",
"1 > < < < 1 r 4 3 1 > 1 Y.oX#Xu.u.S.S.B.v.%.%.D.B.:.1.%X$X1.&X5X4.;.:.1.$XXX1.;..X&X:.<.-XB.@.v n B @.|.tX`.t > 1 < < 4 2 1 < > ",
"1 < 1 1 1 4 2 < > 1 1 1 ^..XXX XV.S.D.V.b.V.B.C.B.B.}..XsX1.}.uX=. .|.}.}. ...1.$X$X|.1.<.M.B.@ $ v m @.uXsX`.5 1 1 3 1 < > < 1 ",
"3 2 < < 3 1 1 2 3 3 4 3 oXS. XoX%X:X XV.b.b.e.c.B..X.X.XuXqX..0X=.A A S v.:. . .K ^ 1.1.%.-X4.# $ $ v v  .eX`.3 < 1 3 1 4 3 1 3 ",
"> > 3 3 3 6 3 6 3 > 3 t ,X#X~.$X7X>X%X:X}.V.p.b.+XB.$.B.qXNXK |.=.m A / G %.@X'  .J Q ,.j.9XFX4.b b N n N D.`.2 4 4 6 3 4 3 > > ",
": > 1 < 1 3 > 3 > : 1 j 7XT.>.tX&X#XXX%X&X%X&XXXv.2X:.:.e.bX%X}.%Xm A G / m ' ( <.1.<./ <.G h.BX7XT.4.:.W b.yXd 3 3 4 > > > > > ",
"1 1 < 1 3 3 3 > 1 3 1 ~.}.@XvX6X&X#X&X&X%X$X$X$XM.1XD.1.:.e.bX!.uXK m V ~ T Y / ^ ) $./ / I N KXnX7XT.;./ D.BXz 4 4 r 3 > < 3 > ",
"4 < < < 1 1 6 3 u y 1 -.$X@X6X!.[ !.|.T.}.T.:.}.1X+XB.@X>.:.OXbX$X5XS N J Q ~ / $.) / / $.~ ~ HXKXmX7X&X-.r.8Xl 3 3 3 4 3 3 4 3 ",
"1 < < 1 2 4 6 l I.l 6 f p.R.E.o.C ] X.K Q ..1.oXZ.+XZ.}.4.>.:.%XtXqX5XS J K / J Q / $.$.$./ B.CXKXGXnXXXOXOX9XL.3 6 4 3 3 < 1 < ",
"1 2 1 4 4 q | !.D.t.q L.T.W G b m b B Q K K B.+XB.B.C.E.E.4.T.}.uXdX3X|.>.X.;.S J Q / :.*.@.XXuX,XwXeXiX,XOX>XyXy r 4 3 6 3 3 2 ",
"4 1 2 y 7 d -.y.m.8.e -.=.G N $ * m J 1.J ^ D.+X1.k.X.o.o.o.=.p.:XmX3XwX0X=.!.E.:.=...T.4.;.V.' _ %.0.nXBX7X>XaXu y r 6 4 < r 1 ",
"4 2 1 2 2 4 f ) b./.^.e.:.Q K S o.] D..XXXB.M.z.+Xp.B % $ b m A / D.-XeXqX&X[ 4.=.4.!.E.4.T.:.G J ! } wXHXdX1X4Xx 4 3 4 4 3 4 2 ",
"2 < 6 5 K.t.y.XX_ C.:X,XE. .m 1.<.B.*X2X1.B.B.g.aXnXE.$ o $ # N % v A k.-XlX,X#X4.;.E.@X4.4.XXI B E f iXAXDXnXeX{.7 5 2 2 < 1 < ",
"> 2 2 0 0.` J V.#.V.wXZ.^ Q A ;.,.1.1.1.<.,.^ j.NXZXsX0X& N # % . b n N Y M.;XrX0XXX#X&X@X4.@X~ N V XXNXaXnXDXrXVX7 2 1 1 < > 2 ",
"1 > > 0 y.C.h.D.E.p.B.L H *.1.1.<.1.1.F.,.H }.NXLXLXxXNXMXO.*. .# . o $ V U h.J.;XgX9X,X5X@X$XV.b ` A.,X:XnXNXlXSX4 < 2 2 < < < ",
"1 < 2 8 U.N.S.A..X|.#X$.L $.*XZ.v.1.F.F.,.H 1.NXLXLXHXFXDXHXb.1.&.M o . o v N U z.J.fXlXpX7X@X0XS E %.*XoX1XDXaXxXx 4 4 1 > 1 < ",
"1 2 0 e r.&.e.C.Z..X}.V.^ XX$XB.<.v.F.x.,.,.1.NXHXKXGXGXDXFXFXfXXX&.&.& O o @ B I R M.zXxXaX7XqX&XV ` r.%XOXnXiXaXcX1 > 1 > 1 3 ",
"> 1 /.a.l.q.b.n.l.B.*.p.*.B.&X$.^ <.v.j.<.,.B.pXDXGXDXGXHXFXAXAXdXsX5X+.] @ @ $ n G P z.;XxXZXqXuXK G %. X:XdXdXeXVX4 1 4 1 < 1 ",
": 5 >Xq.n.r.D.n.k.l./ #./ ) _ %.I ,.<.j.g.<.^ 2XpXgXpXpXgXHXAXAXFXHXmX&XR.[ * . O % M P h.J.xXFXmX@XJ / N.OXeXrXeXvX1 < 1 > : > ",
"> | p.p.Z.m.D.N.v.<.L ..J J Q ) T 1.j.x.g.,.I XXF.2X1Xm.F.HXHXFXFXAXHXDXpX7X@X- X @ @ $ L j.J.xXPXbX>.Q l.m.M.-X;X8Xl > > > < 1 ",
"2 8.C.oXA.m.Z.C.b.N._ @.E Q ^ <.1.1.j.M.,.,.T <.T 1.1.I j.pXHXHXAXZXZXAXHXHXDXbXU.* @ . # Z l.J.xXJX|.J L L 5.6.;XH.8.7 1 2 2 < ",
"2 8 r.c.G V V L ! e.*.*./ <.j.h.1Xj.M.j.g.,.,.H I H H B f.-XFXHXHXFXFXFXGXAXKXHXKXuX7X& . # D h.J.xXdXR.+.! w.5.hXH.L.2 2 < 2 < ",
"< 4 ! ! N N N N E ` _ :.B.v.' h.2XF.M.g.,.,.I H H H n n f.LXDXGXKXGXnXaXiXuXdXmXeX1XOXrX7XC $ B 0.H.zXeX>XW.a.n.;XH.].1 4 2 < 2 ",
"8 L.p.y.P V B M V E &.O.$.U U R M.G.x.j.<.,.I I I I n n j.G.FXLXHXLXAXpXdXnXiXpX%Xv.A.F.-XBX-.# B n.G.fXfX<X8X=XzXzX{.5 6 < 6 2 ",
"e ! %.L 0.~ V V V G V ..i.0.R R n.+XU L <.G I U U I I G n.CXHXAXdXeX3XdXaX3XOX+X.XB.M.M.G.4XxXeX{ oXq.H.zXeX8X=X;XzX^.p 2 1 4 2 ",
"q q ~.! r.%.W U P Y E G -.*.$.Y c.<.R U T T L I I T Z.M.-XnXDXZXiXwX3X1X+XA.0.) ) j.M.-X-X4X4XzXdX=.F q.A.eXlX<X=XxXkXl 4 1 3 < ",
"> e a.C.a.i.w._ ! ! E W K X./ / #.v.<.I ,.U I U R I *XD.+X}.AXdXiXaX9X=XS.k.` R ) A.J.n.h.x.x.4XxXzXt.&.! C.<XlX<XSXPX_.1 6 < 1 ",
"1 7.Y r.-.>.i.i.` ` O.O.S ! ..o.W ~ _ ~ l.R R U U H / %.' G 4X-XoXeXwX%Xq.L G G ) A.c.L R x.H.4XA.r.A.n.L a.=XeXkXJXUXcXK.k 7 1 ",
"1 5 w.L W -.i.i.q.#.+.&.&.=.K E Z N Q h.<.<.<.R I H B I R T z.v.q.eXwXD.~ G B R l.' ' B P l.b.m.6.P P x.W.t././.lXVXUXIXkXs.6 : ",
"1 1 0 { %.#.>.u.y.&.y.u.T.-.[ S W S ~ <.T Y ) ,.R ) G T h.v.F.e.` aX3XoXb.k.L k.c.~ c.% b V ` r.D V V z.iXU.{ W.8XlXIXVXVXVXl 4 ",
"1 1 2 a.q.u.}.}.W.u.y.o.U.>.o.J V %.W S _ Y k.m.) J R L c.G.2X` 0.aXu.W O.O.+.P Y ) C.! G P w.a.w.w.w.5.=X>XU.d d VXCXVXd.jXjX].",
": < 1 l.q.&.:.t.T.i.-.-.o.-.+.S ; O.D.b.j.,.n.c.` ( B O O ; q.=XOXpX[ [ [ +.+.n.n.l.G.wX8XeXeXeX8XzXVX/.=X:X~.Q.U.Y.8.{.].jXjXl ",
": 1 1 f q.#.i.R.i.y.+.-.o.Z % # # 6.S.m.g.g.M.<./ L # O # . & :Xu.S.<X+.[ D -.-.i.R.oX>X>XwXaXBXBXSXFXBXlX7X/.yXY.8.7.9.7 < k 2 ",
"2 1 > 5 t.r.! ! +.[ ; M ; % * & # y. X,X-XM.Z.( L B + O # O X % E W %.O.{ -.+.U.-.U.R.U./.[.8X8XyXiXaXaXBXVXCXCXvX{.].z < 1 2 1 ",
"2 1 1 5 K.8.%.E F Z C C * & + X + } p.XXA.M.m.( G X X + X O X X O O # ; Z D w ] & # % ; [ =.3.Q.[.~.t.a./.yX{.{.{.x 1 2 1 1 2 2 ",
"1 > > 2 y d w.D [ | } w w s a 9 , , { { f.F.G.0.; + +     O O # # # # % & & X + = - = , , 9 = 9 } w w 7.K.`.x d p 7 r 1 2 < < 3 ",
"4 4 2 7 u i t.D j c c '.'.'.'.'.).2.'.2.|.[.OXZ.} j j j s 9 9 w w 9 w s s s s j h h h j j h h x z g p i r y y 2 y 7 2 4 6 1 r r ",
"4 1 1 7 6 i f e z c c c c c c ).c c '.j `.'.I.I.(.).).).(.(.c c x (.c c c j c z z g g i i i y i y y r r r r 2 1 6 6 2 r 2 1 2 2 ",
"4 1 2 1 3 4 r i i g i i i i g g g h z z z c z c (.c c z c h z z h h g i i i r r r r r r r r 3 3 4 3 r 3 < r 1 2 1 1 1 2 r 1 2 r ",
"< 1 6 1 u 3 4 1 < 1 2 6 4 p r r r r r u i g z g g i i r i i i i r 6 3 3 1 4 r y r 3 r 3 1 1 r 3 y r 2 1 > > < 6 2 y 4 2 < > > 3 ",
"< 1 1 1 2 > < 1 < < 1 1 2 1 < 1 1 > 1 3 3 4 4 3 > 5 > 3 3 1 4 3 < 1 1 < 1 1 1 4 1 < 1 < 1 1 2 < 2 1 > 1 1 > 1 1 < 2 < < < < < r ",
"1 > < 1 < 1 4 4 1 < > < 1 > 4 4 1 3 > > > 1 > 4 r 1 3 > < < 1 > 4 4 1 3 > < < < 1 2 2 < 1 : < < > < 6 2 1 1 > > 1 < 1 6 2 1 < < ",
"1 < < 1 1 2 1 < > 1 1 < 1 3 4 1 > > 1 1 < 3 3 1 > > > > 1 < 1 3 4 < > > < 2 1 1 2 1 1 : < 1 1 1 1 3 2 < : < 1 1 < 1 2 1 < : 1 2 ",
"1 2 < < 1 < < 2 1 1 1 < < 1 > < 4 < 4 1 > > 3 > 3 r > 4 1 < < 1 > 1 4 1 2 < < < 1 < 2 3 1 2 < > 1 1 > 2 3 1 2 < < 1 1 < 3 1 1 r "
};
