/* XPM */
static char *a180fa6da7ca42ffea6e32ba09e73d7acsQHmu3V0wTS8Qh2[] = {
/* columns rows colors chars-per-pixel */
"64 64 218 2 ",
"   c gray30",
".  c None",
"X  c gray30",
"o  c gray30",
"O  c #4C4D4D",
"+  c #4C4C4D",
"@  c gray30",
"#  c #6F604B",
"$  c #876E49",
"%  c #866D49",
"&  c #6E604B",
"*  c #8F7248",
"=  c #AD8347",
"-  c #816A4A",
";  c #806A4A",
":  c #806A49",
">  c #816A49",
",  c #8D7149",
"<  c #9A7848",
"1  c #55524C",
"2  c #8E7248",
"3  c #9A7948",
"4  c #997848",
"5  c #8E7249",
"6  c #5A544C",
"7  c #A98147",
"8  c #BA8A46",
"9  c #B98A46",
"0  c #A88047",
"q  c #B88A46",
"w  c #B78946",
"e  c #A78047",
"r  c #B58745",
"t  c #AB7C3E",
"y  c #AA7A3D",
"u  c #B18342",
"i  c #B28343",
"p  c #93602F",
"a  c #8E5A2B",
"s  c #8F5B2C",
"d  c #8E5B2B",
"f  c #A6753B",
"g  c #935F2E",
"h  c #8F5D2F",
"j  c #A09C8A",
"k  c #A6B4AC",
"l  c #A6B3AA",
"z  c #977C5C",
"x  c #8D5828",
"c  c #906338",
"v  c #A3A799",
"b  c #A6B3AB",
"n  c #A5AFA5",
"m  c #946F4A",
"M  c #8D5829",
"N  c #8F5E31",
"B  c #AAC1BF",
"V  c #B4E6F4",
"C  c #B4E4F1",
"Z  c #B4E5F2",
"A  c #9D9078",
"S  c #8D5726",
"D  c #926940",
"F  c #AED1D6",
"G  c #B4E6F3",
"H  c #B2DFE9",
"J  c #977B5B",
"K  c #AAC0BD",
"L  c #B3E2EE",
"P  c #9C8F76",
"I  c #926840",
"U  c #AECFD4",
"Y  c #B3E3F0",
"T  c #B2DDE6",
"R  c #977B5A",
"E  c #A09C89",
"W  c #A6B2A9",
"Q  c #A2A698",
"!  c #A6B2AA",
"~  c #A5AEA4",
"^  c #946F49",
"/  c #93602E",
"(  c #8E5C2D",
")  c #8F5C2E",
"_  c #8E5B2C",
"`  c #A19F8E",
"'  c #A7B8B1",
"]  c #A7B6AF",
"[  c #987E5E",
"{  c #916439",
"}  c #A4AA9D",
"|  c #A7B7B0",
" . c #94704B",
".. c #9F9985",
"X. c #A5AEA3",
"o. c #977B59",
"O. c #A2A393",
"+. c #A5AFA4",
"@. c #A4AB9E",
"#. c #946E48",
"$. c #8E5C2E",
"%. c #A1A191",
"&. c #A8BBB6",
"*. c #A8B9B4",
"=. c #A8BAB4",
"-. c #987F60",
";. c #A4ACA1",
":. c #A8BAB5",
">. c #A7B6AE",
",. c #94714C",
"<. c #B4E5F3",
"1. c #B88946",
"2. c #8E5C2F",
"3. c #9E9681",
"4. c #A4ACA0",
"5. c #967958",
"6. c #906237",
"7. c #A1A08F",
"8. c #A4AB9F",
"9. c #A3A79A",
"0. c #936D47",
"q. c #AA8146",
"w. c #967546",
"e. c #907247",
"r. c #987746",
"t. c #AE8346",
"y. c #94612F",
"u. c #8F5B2B",
"i. c #A6763B",
"p. c #927448",
"a. c #676157",
"s. c #7C807F",
"d. c #878D8F",
"f. c #777A79",
"g. c #696052",
"h. c #9C7A47",
"j. c #B68745",
"k. c #AE7E40",
"l. c #AC7D3F",
"z. c #B28443",
"x. c #A88147",
"c. c #B18646",
"v. c #61584B",
"b. c #838A8D",
"n. c #BAC7CA",
"m. c #BBC7CA",
"M. c #B8C4C7",
"N. c #73797C",
"B. c #6D5E49",
"V. c #B58846",
"C. c #B68846",
"Z. c #776449",
"A. c #6A6E6E",
"S. c #9DA7AA",
"D. c #A8B3B6",
"F. c #97A1A4",
"G. c #636564",
"H. c #846B48",
"J. c #B68845",
"K. c #B08546",
"L. c #8C7048",
"P. c #776851",
"I. c #756A57",
"U. c #78684F",
"Y. c #B38746",
"T. c #B78A46",
"R. c #9C6A34",
"E. c #9A6733",
"W. c #996732",
"Q. c #9E6D36",
"!. c #B48644",
"~. c #B48745",
"^. c #B78846",
"/. c #A7773B",
"(. c #915D2D",
"). c #9D6C35",
"_. c #8F5C2C",
"`. c #AB7B3E",
"'. c #986532",
"]. c #966430",
"[. c #925E2D",
"{. c #A27138",
"}. c #976531",
"|. c #9F6D36",
" X c #A5743A",
".X c #8D592A",
"XX c #B08141",
"oX c #AF7F40",
"OX c #9F6E36",
"+X c #8D592B",
"@X c #94602F",
"#X c #B38443",
"$X c #A5753A",
"%X c #996733",
"&X c #B88A47",
"*X c #AC7C3E",
"=X c #B38543",
"-X c #976431",
";X c #A7763B",
":X c #905C2C",
">X c #905D2C",
",X c #9A6833",
"<X c #AE7F40",
"1X c #986632",
"2X c #B48544",
"3X c #AF8041",
"4X c #AD7E40",
"5X c #966431",
"6X c #B28342",
"7X c #915E2D",
"8X c #907348",
"9X c #9B7948",
"0X c #BA8B46",
"qX c #70614B",
"wX c #76644A",
"eX c #54514C",
"rX c #7D684A",
"tX c white",
/* pixels */
"  . O + + + + + + + + + + + + + + + + + + + + + + + + + + + + + + + + + + + + + + + + + + + + + + + + + + + + + + + + + + O . X ",
"@ @ # $ $ % % % % % % % % % % % % % % % % % % % % % % % % % % % % % % % % % % % % % % % % % % % % % % % % % % % % % % $ $ & @ @ ",
"@ @ * = - ; : : : : : : : : : : : : : : : : : : : : : : : : : : : : : : : : : : : : : : : : : : : : : : : : : : : : ; > = , O @ ",
"@ @ * < 1 2 3 4 4 4 4 4 4 4 4 4 4 4 4 4 4 4 4 4 4 4 4 4 4 4 4 4 4 4 4 4 4 4 4 4 4 4 4 4 4 4 4 4 4 4 4 4 4 4 4 4 4 3 5 1 3 , O @ ",
"@ @ * < 6 7 8 9 9 9 9 9 9 9 9 9 9 9 9 9 9 9 9 9 9 9 9 9 9 9 9 9 9 9 9 9 9 9 9 9 9 9 9 9 9 9 9 9 9 9 9 9 9 9 9 9 9 8 7 6 3 , O @ ",
"@ @ * < 6 0 q w w w w w w w w w w q q q q q q q q q q q q q q q q q q q q q q q q q q q q q q q q q q q w w w w w q e 6 3 , O @ ",
"@ @ * < 6 0 q w w w w w w w w w r t y y y y y y y y y y y y y y y y y y y y y y y y y y y y y y y y y y u w w w w q e 6 3 , O @ ",
"@ @ * < 6 0 q w w w w w w w w w i p a s s s s s s s s s s s s s s s a d s s s s s s s s s s s s s s s a f q w w w q e 6 3 , O @ ",
"@ @ * < 6 0 q w w w w w w w w w i g h j k l l l l l l l l l l l l z x c v b l l l l l l l l l l l n m M f q w w w q e 6 3 , O @ ",
"@ @ * < 6 0 q w w w w w w w w w i g N B V C C C C C C C C C C C Z A S D F G C C C C C C C C C C Z H J x f q w w w q e 6 3 , O @ ",
"@ @ * < 6 0 q w w w w w w w w w i g N K C L L L L L L L L L L L L P S I U Y L L L L L L L L L L L T R x f q w w w q e 6 3 , O @ ",
"@ @ * < 6 0 q w w w w w w w w w i g N K C L L L L L L L L L L L L P S I U Y L L L L L L L L L L L T R x f q w w w q e 6 3 , O @ ",
"@ @ * < 6 0 q w w w w w w w w w i g N K C L L L L L L L L L L L L P S I U Y L L L L L L L L L L L T R x f q w w w q e 6 3 , O @ ",
"@ @ * < 6 0 q w w w w w w w w w i g N K C L L L L L L L L L L L L P S I U Y L L L L L L L L L L L T R x f q w w w q e 6 3 , O @ ",
"@ @ * < 6 0 q w w w w w w w w w i g N B V C C C C C C C C C C C Z A S D F G C C C C C C C C C C Z H J x f q w w w q e 6 3 , O @ ",
"@ @ * < 6 0 q w w w w w w w w w i g h E b W W W W W W W W W W W W z x c Q ! W W W W W W W W W W W ~ ^ M f q w w w q e 6 3 , O @ ",
"@ @ * < 6 0 q w w w w w w w w w i / a ( ) ) ) ) ) ) ) ) ) ) ) ) ) _ a a ) ) ) ) ) ) ) ) ) ) ) ) ) ) _ a f q w w w q e 6 3 , O @ ",
"@ @ * < 6 0 q w w w w w w w w w i g h ` ' ] ] ] ] ] ] ] ] ] ] ] ] [ x { } | ] ] ] ] ] ] ] ] ] ] ] l  .M f q w w w q e 6 3 , O @ ",
"@ @ * < 6 0 q w w w w w w w w w i g N B V C C C C C C C C C C C Z A S I F G C C C C C C C C C C Z H J x f q w w w q e 6 3 , O @ ",
"@ @ * < 6 0 q w w w w w w w w w i g N K C L L L L L L L L L L L L P S I U Y L L L L L L L L L L L T R x f q w w w q e 6 3 , O @ ",
"@ @ * < 6 0 q w w w w w w w w w i g N K C L L L L L L L L L L L L P S I U Y L L L L L L L L L L L T R x f q w w w q e 6 3 , O @ ",
"@ @ * < 6 0 q w w w w w w w w w i g N K C L L L L L L L L L L L L P S I U Y L L L L L L L L L L L T R x f q w w w q e 6 3 , O @ ",
"@ @ * < 6 0 q w w w w w w w w w i g N K C L L L L L L L L L L L L P S I U Y L L L L L L L L L L L T R x f q w w w q e 6 3 , O @ ",
"@ @ * < 6 0 q w w w w w w w w w i g N B V C C C C C C C C C C C Z A S D F G C C C C C C C C C C Z H J x f q w w w q e 6 3 , O @ ",
"@ @ * < 6 0 q w w w w w w w w w i g h ..n X.X.X.X.X.X.X.X.X.X.X.X.o.x c O.+.X.X.X.X.X.X.X.X.X.X.~ @.#.M f q w w w q e 6 3 , O @ ",
"@ @ * < 6 0 q w w w w w w w w w i / a $.) ) ) ) ) ) ) ) ) ) ) ) ) _ a a ) ) ) ) ) ) ) ) ) ) ) ) ) ) _ a f q w w w q e 6 3 , O @ ",
"@ @ * < 6 0 q w w w w w w w w w i g h %.&.*.*.*.*.*.*.*.*.*.*.*.=.-.x { ;.:.*.*.*.*.*.*.*.*.*.*.=.>.,.M f q w w w q e 6 3 , O @ ",
"@ @ * < 6 0 q w w w w w w w w w i g N B V C C C C C C C C C C C Z A S I F <.C C C C C C C C C C Z H J x f q w w w q e 6 3 , O @ ",
"@ @ * < 6 0 q w w w w w w w w w i g N K C L L L L L L L L L L L L P S I U Y L L L L L L L L L L L T R x f q w w w q e 6 3 , O @ ",
"@ @ * < 6 0 q w w w w w w w w w i g N K C L L L L L L L L L L L L P S I U Y L L L L L L L L L L L T R x f q w w w q e 6 3 , O @ ",
"@ @ * < 6 0 q w w w w w w w w w i g N K C L L L L L L L L L L L L P S I U Y L L L L L L L L L L L T R x f q w w w q e 6 3 , O @ ",
"@ @ * < 6 0 q w w w w w w w w w i g N K C L L L L L L L L L L L L P S I U Y L L L L L L L L L L L T R x f q w w w q e 6 3 , O @ ",
"@ @ * < 6 0 q w w w w w w w w w i g N B V C C C C C C C C C C C Z A S D F G C C C C C C C C C C Z H J x f q w w w q e 6 3 , O @ ",
"@ @ * < 6 0 q w 1.9 9 9 1.w w w i g 2.3.4.@.@.@.@.@.@.@.@.@.@.@.@.5.x 6.7.8.@.@.@.@.@.@.@.@.@.@.@.9.0.M f q w w w q e 6 3 , O @ ",
"@ @ * < 6 0 q w q.w.e.r.t.1.w w i y.s u.u.u.u.u.u.u.u.u.u.u.u.u.u.u.s s u.u.u.u.u.u.u.u.u.u.u.u.u.u.s s i.q w w w q e 6 3 , O @ ",
"@ @ * < 6 0 q p.a.s.d.f.g.h.1.w j.k.l.l.l.l.l.l.l.l.l.l.l.l.l.l.l.l.l.l.l.l.l.l.l.l.l.l.l.l.l.l.l.l.l.l.z.w w w w q e 6 3 , O @ ",
"@ @ * < 6 x.c.v.b.n.m.M.N.B.V.w w q q q q q q q q q q q q q q q q q q q q q q q q q q q q q q q q q q q w w w w w q e 6 3 , O @ ",
"@ @ * < 6 0 C.Z.A.S.D.F.G.H.w w w w w w w C.J.J.J.J.J.J.J.J.J.J.J.J.J.J.J.J.J.J.J.J.J.J.J.J.J.J.J.C.w w w w w w w q e 6 3 , O @ ",
"@ @ * < 6 0 q K.L.P.I.U.p.Y.w w w w w T.i R.E.W.W.W.W.W.W.W.W.W.W.W.W.W.W.W.W.W.W.W.W.W.W.W.W.W.E.Q.!.w w w w w w q e 6 3 , O @ ",
"@ @ * < 6 0 q w q C.~.C.q w w w w ^.r r /.a (.).Q.Q.Q.Q.Q.Q.Q.Q.Q.Q.Q.Q.Q.Q.Q.Q.Q.Q.Q.Q.Q.Q.Q.R.s _.`.j.C.w w w w q e 6 3 , O @ ",
"@ @ * < 6 0 q w w w w w w w w w q y '.].(.[.i.w w w w w w w w w w w w w w w w w w w w w w w w C.{.(.[.}.|.!.w w w q e 6 3 , O @ ",
"@ @ * < 6 0 q w w w w w w w w w q  X.Xp f XXw w w w w w w w w w w w w w w w w w w w w w w w w w C.oXOX+X@X#Xw w w q e 6 3 , O @ ",
"@ @ * < 6 0 q w w w w w w w w w q $X.X%Xw q w w w w w w w w w w w w w w w w w w w w w w w w w w w &X*Xu.y.=Xw w w q e 6 3 , O @ ",
"@ @ * < 6 0 q w w w w w w w w w q $X.X%XJ.w w w w w w w w w w w w w w w w w w w w w w w w w w w w q `.d y.=Xw w w q e 6 3 , O @ ",
"@ @ * < 6 0 q w w w w w w w w w q $X.X%XJ.w w w w w w w w w w w w w w w w w w w w w w w w w w w w q `.d y.=Xw w w q e 6 3 , O @ ",
"@ @ * < 6 0 q w w w w w w w w w q $X.X%XJ.w w w w w w w w w w w w w w w w w w w w w w w w w w w w q `.d y.=Xw w w q e 6 3 , O @ ",
"@ @ * < 6 0 q w w w w w w w w w q $X.X%XJ.w w w w w w w w w w w w w w w w w w w w w w w w w w w w q `.d y.=Xw w w q e 6 3 , O @ ",
"@ @ * < 6 0 q w w w w w w w w w q $X.X%XJ.w w w w w w w w w w w w w w w w w w w w w w w w w w w w q `.d y.=Xw w w q e 6 3 , O @ ",
"@ @ * < 6 0 q w w w w w w w w w q $X.X%XJ.w w w w w w w w w w w w w w w w w w w w w w w w w w w w q `.d y.=Xw w w q e 6 3 , O @ ",
"@ @ * < 6 0 q w w w w w w w w w q $X.X%XJ.w w w w w w w w w w w w w w w w w w w w w w w w w w w w q `.d y.=Xw w w q e 6 3 , O @ ",
"@ @ * < 6 0 q w w w w w w w w w q $X.X%XJ.w w w w w w w w w w w w w w w w w w w w w w w w w w w w q `.d y.=Xw w w q e 6 3 , O @ ",
"@ @ * < 6 0 q w w w w w w w w w q $X.X%XJ.w w w w w w w w w w w w w w w w w w w w w w w w w w w w q `.d y.=Xw w w q e 6 3 , O @ ",
"@ @ * < 6 0 q w w w w w w w w w q $X.X%XJ.w w w w w w w w w w w w w w w w w w w w w w w w w w w w q `.d y.=Xw w w q e 6 3 , O @ ",
"@ @ * < 6 0 q w w w w w w w w w q $X.X%XJ.w w w w w w w w w w w w w w w w w w w w w w w w w w w w q `.d y.=Xw w w q e 6 3 , O @ ",
"@ @ * < 6 0 q w w w w w w w w w q $X.X%XC.w w w w w w w w w w w w w w w w w w w w w w w w w w w w &Xt u.y.=Xw w w q e 6 3 , O @ ",
"@ @ * < 6 0 q w w w w w w w w w q  X.X-XXXj.w w w w w w w w w w w w w w w w w w w w w w w w w w w j.;Xa y.#Xw w w q e 6 3 , O @ ",
"@ @ * < 6 0 q w w w w w w w w w q ;X:X>X[.,X<Xq q q q q q q q q q q q q q q q q q q q q q q q T.*X1X(.:X}.2Xw w w q e 6 3 , O @ ",
"@ @ * < 6 0 q w w w w w w w w w w 2X3X4X|..X5Xl.k.k.k.k.k.k.k.k.k.k.k.k.k.k.k.k.k.k.k.k.k.k.k.`.@Xa {.<X6X^.w w w q e 6 3 , O @ ",
"@ @ * < 6 0 q w w w w w w w w w w w q &X<X[.:X[.[.[.[.[.[.[.[.[.[.[.[.[.[.[.[.[.[.[.[.[.[.[.[.7X:Xy.i &Xw w w w w q e 6 3 , O @ ",
"@ @ * < 6 0 q w w w w w w w w w w w w w r <Xk.k.k.k.k.k.k.k.k.k.k.k.k.k.k.k.k.k.k.k.k.k.k.k.k.k.k.3XJ.w w w w w w q e 6 3 , O @ ",
"@ @ * < 6 0 q w w w w w w w w w w w w w w q q q q q q q q q q q q q q q q q q q q q q q q q q q q T.w w w w w w w q e 6 3 , O @ ",
"@ @ 8X9X6 7 0X9 9 9 9 9 9 9 9 9 9 9 9 9 9 9 9 9 9 9 9 9 9 9 9 9 9 9 9 9 9 9 9 9 9 9 9 9 9 9 9 9 9 9 9 9 9 9 9 9 9 0X7 6 9X5 O @ ",
"@ @ qXwXeXrX% % % % % % % % % % % % % % % % % % % % % % % % % % % % % % % % % % % % % % % % % % % % % % % % % % % % rXeXwX# @ @ ",
"o . O + @ + + + + + + + + + + + + + + + + + + + + + + + + + + + + + + + + + + + + + + + + + + + + + + + + + + + + + + @ + O . X "
};
