/* XPM */
static char *_edbf006a53b45dc9b053b3bdae6ef2eg3M96IkDpP1vP0Lj[] = {
/* columns rows colors chars-per-pixel */
"64 64 223 2 ",
"   c #6C4F39",
".  c #614733",
"X  c #5E4531",
"o  c #634834",
"O  c #634934",
"+  c #6A4E3A",
"@  c #5E4431",
"#  c #664A35",
"$  c #6A4E38",
"%  c #5F4632",
"&  c #5F4532",
"*  c #644934",
"=  c #644A35",
"-  c #694D39",
";  c #5D4430",
":  c #694D37",
">  c #5F4531",
",  c #654935",
"<  c #654A36",
"1  c #684C38",
"2  c #684C37",
"3  c #654A35",
"4  c #674C38",
"5  c #664B38",
"6  c #6B4F39",
"7  c #604632",
"8  c #644935",
"9  c #694E39",
"0  c #634935",
"q  c #6C503A",
"w  c #614732",
"e  c #6A4F3A",
"r  c #614734",
"t  c #634833",
"y  c #5E4532",
"u  c #624733",
"i  c #6B4F3B",
"p  c #604633",
"a  c #684C36",
"s  c #624834",
"d  c #674B35",
"f  c #694D38",
"g  c #654A37",
"h  c #664B37",
"j  c #644A36",
"k  c #614833",
"l  c #624833",
"z  c #674C36",
"x  c #604733",
"c  c #674C37",
"v  c #664B36",
"b  c #664B35",
"n  c #614834",
"m  c #674B36",
"M  c #694C37",
"N  c #684D37",
"B  c #674B37",
"V  c #634835",
"C  c #6C4F3A",
"Z  c #644936",
"A  c #624734",
"S  c #6B4E39",
"D  c #6A4E39",
"F  c #684D38",
"G  c #6C503C",
"H  c #73553F",
"J  c #6D513B",
"K  c #6C503B",
"L  c #6D513D",
"P  c #72553E",
"I  c #6D503A",
"U  c #6F523C",
"Y  c #6D513C",
"T  c #72543E",
"R  c #6F523D",
"E  c #684D39",
"W  c #6E523E",
"Q  c #6E513C",
"!  c #71543E",
"~  c #6D503B",
"^  c #674D38",
"/  c #70543F",
"(  c #6A4F3B",
")  c #70533C",
"_  c #6F533E",
"`  c #6B503C",
"'  c #72553F",
"]  c #6B4F3A",
"[  c #6C513D",
"{  c #6E513B",
"}  c #6B503B",
"|  c #684E39",
" . c #634A36",
".. c #644A37",
"X. c #664A36",
"o. c #654B37",
"O. c #614935",
"+. c #664C39",
"@. c #614835",
"#. c #674D39",
"$. c #664C38",
"%. c #684E3A",
"&. c #614936",
"*. c #674D3A",
"=. c #6A4D38",
"-. c #664D38",
";. c #624A37",
":. c #694F3B",
">. c #694E3A",
",. c #634B38",
"<. c #664C37",
"1. c #654B38",
"2. c #634B37",
"3. c #624936",
"4. c #634936",
"5. c #654C38",
"6. c #664D39",
"7. c #624935",
"8. c #755742",
"9. c #755741",
"0. c #735641",
"q. c #614633",
"w. c #72543F",
"e. c #654B36",
"r. c #71543F",
"t. c #6E513D",
"y. c #5D4431",
"u. c #5E4432",
"i. c #6B4E38",
"p. c #5F4733",
"a. c #5E4633",
"s. c #6D4F3A",
"d. c #5C4531",
"f. c #654C37",
"g. c #5C4431",
"h. c #6E503B",
"j. c #5C4430",
"k. c #5B4330",
"l. c #5B4331",
"z. c #644B36",
"x. c #5D4532",
"c. c #5F4633",
"v. c #604734",
"b. c #644B37",
"n. c #674E39",
"m. c #59422F",
"M. c #624835",
"N. c #5C4331",
"B. c #5C4330",
"V. c #5A4230",
"C. c #5D4531",
"Z. c #5D4432",
"A. c #674E3A",
"S. c #5B4230",
"D. c #654A34",
"F. c #6A4E37",
"G. c #694E38",
"H. c #71533D",
"J. c #70533D",
"K. c #6E523C",
"L. c #70533E",
"P. c #6C513C",
"I. c #5F4734",
"U. c #694F3A",
"Y. c #6F513B",
"T. c #6A503B",
"R. c #70523C",
"E. c #6B513C",
"W. c #664A37",
"Q. c #654C39",
"!. c #644B38",
"~. c #735640",
"^. c #6E523D",
"/. c #725540",
"(. c #5F4533",
"). c #5F4631",
"_. c #624934",
"`. c #604834",
"'. c #5A4330",
"]. c #634A37",
"[. c #57402E",
"{. c #594230",
"}. c #59412F",
"|. c #5E4634",
" X c #5D4533",
".X c #58402E",
"XX c #5C4432",
"oX c #58412F",
"OX c #5B4431",
"+X c #654934",
"@X c #6B4F38",
"#X c #6A4D37",
"$X c #6A4D39",
"%X c #6A4F39",
"&X c #6D523C",
"*X c #6F533D",
"=X c #71543D",
"-X c #6F543F",
";X c #6D523D",
":X c #6B503A",
">X c #6D523E",
",X c #654D39",
"<X c #604631",
"1X c #614632",
"2X c #624A36",
"3X c #5E4632",
"4X c #674D37",
"5X c #5A422F",
"6X c #614836",
"7X c #604835",
"8X c #5F4634",
"9X c #5E4533",
"0X c #6A503C",
"qX c #654B35",
"wX c #6A4F3C",
"eX c #634A35",
"rX c #684E3B",
"tX c #745741",
"yX c #745641",
"uX c #735540",
"iX c #624732",
"pX c #6C523D",
"aX c white",
/* pixels */
"  . X X o O + @ # $ % & @ * = - ; : : > & X , < 1 ; $ 2 X & > 3 4 5 @ 6 3 X & 7 8 9 0 7 q * X & w 8 e r . q t X y u 8 i p o 6 . ",
"a s o 8 d f g < . a . O 8 a 2 h j k a . 0 3 a 2 h 8 l z x 0 3 2 c h 0 O v . 0 # : h h s 3 3 u 0 b f h h n # * s 8 d f h h r m k ",
"r o p M N B V C Z s A s : N < < S 0 s . o : N < v D 0 V p 8 : N Z 2 f s 0 7 v : F V D c s 0 % c N F V S h s 0 7 2 N 1 o C < s 8 ",
"G B B H J f K f < L 8 D P I 2 U v h Y V K T I c R < E W o Q ! ~ ^ / 8 ( G o ! ) q 9 _ 8 ` i 8 ' U ] e Q 8 [ - < H { 6 } K 8 W 4 ",
"F B 8 I 9 h |  ...] < X.~ F o.9 O.+.] 8 m ~ F o.| @.#.i V 2 ~ 4 $.%.&.*.e o =.K 4 -.#.;.:.>.o S ] 4 #.$.,.( E o   e <.| 1.2.( 4 ",
"1 V 9 3.4 j $.| @.h 0 - 3.c j E 4 3.h 8 E 4.h j | 5  .h < 4 ..h o.:.o.j j c g o.< 5.( 4.h 8 1 j 5 < 6.( 3.4 0 f 4.4 j 6.( 7.c r ",
"7 X.D h 8.E < o 7 7 c - E 9.h < s 7 7 1 F ] 0.h 3 A 7 q.f c Y w.h = r % s D e.r.t.h 8 x 7 o D < 0.K h 8 p 7 8 D < 8.+ h 0 p % 3 ",
"O s r 0 8 y.o 8 . l s r < s @ = o x l s . v r X < s . l s . h p & v s l s s . h y p h . . s s A h u.. < x k s n s < y.s < . l 0 ",
"j ; l V p : ~ B = n X . 0 . i.I < j p.7 . V .   C 3 e.a.w . s l s.C 8 o.d.l r r 8 I D 0 f.g.l s . # h.9 0 f.j.l s x m { F 0  .j.",
" .e.q.A 3 v r % k. .3 p o 3 < . y l.j 3 7 o X.= . y.g.z.8 7 o v 8 x g.x.e.o p * m s x l.c.e.s q.8 m s p k.v.v u . 8 v s c.k.7.v ",
"7.3 8 O 2 e. .| o.j = = o f  .z.9 j j = = o - 0 b.9 j j 8 = O - 7.5.>.4.< 8 8 8 F 7.#.E  .< 8 8 < 4 7.n.F  .3 8 0 h h  .%.<. .3 ",
"m.p h < 8 4 M.o.y k.. h < 8 4 M...y k.s h 8 < $.7...y g.0 h 8 < o.4.4.N.y.= h 0 h j ..@.g.y < v V c 4.o.r B.y e.< V 4 0 o.c.k.% ",
"V.x s 8 0 o.C.x.V.k.s r 3 j  .X Z.k.N.s r 3 < 7.X g.k.g.s s 3 +.n X g.V.y M.s 8 *.c.y l.k.y M.V 8 A.y y l.k.c.s 0 8 #.X y S.k.p ",
"D s y s X.h c > v F . % u 2 < h @ F c 7 p u F < X.@ $ h % . u 9 o.< > D 3 y s o 9 h s 7 6 8 X s 0 E <.. u 6 O X s = ^ 4 7 * f O ",
"$ O o o D.m 1 s O $ k o O # c 4 r = $ . 0 O # c h . 3 : . 0 * b F h . v z . V * v E j . 2 v l V D.m E 8 k : 3 s V D.m E V s F.s ",
". 7 & 3 a 2 V D r u & q.# N B Z - x u y . # : X.< 1 x u X u b : < B 4 x . X o m f 0 f < x . X * z f V D 0 . x & * z f M.D M.. p ",
">.1 v ! C c G.C B i v F H.6 v C =.4 i < D J.6 < ~ f F G 8 K J.6 e.K.2 >.} 8 R Q D h K.B >.i 8 L.J G.c Q B ( + = ! ~ f F J B ` - ",
">.< 3 ) q 9 } 7.4.i V 2 ) ] F P.v.o.i A f ) ] ^ P.c.$.} r S U ] | [ I.%.+ A ~ Q ] U.:.v.( - s Y.J e T.*.@.` 4 o R.~ D E.5.@.` W.",
"- < h j < 0 o.%.b.- j h g 8 0 $.#.1.- j v o.0 0 -.#.5.- < < 5 0  .%.#.$.F < j 5 0 b.%.Q.E 4 v j h 0 b.U.Q.E h v j o.0 !.:.!.9 < ",
"A 8 C o.~.E F 8 % . X.] $.~.4 F s p . B + E ' 4 2 r x . 2 9 ( r.E F x x . D 4 ^.Q E c % u u 6 o./ K | h y u o ] o./.e 9 < y . s ",
"w < < 3 + p . 0 p w h 8 c E (.A V % u h 0 F 4 & s o ).l h o D h & o s 7 O h s ] 4.% 0 . ).8 h o ] M.% 8 . ).3 g O ] r p 8 . 7 h ",
"z.j.% s % * C c < s ; % V & v q v e.x y.% V & z C < h p.X 7 o & M K 3 <.C.& x A 7 $ ] 8 <.g.% . . . 6 D 8 f.j.% A p l C - = j j.",
"7.O o 8 8 =.v p k.O.8 s 8 3 f < y g.7.3 A 8 v f 3 y.x.7.3 A 8 m f 8 g.a._.3 s 8 2 2 o k.I._., o 8 : c s V.`._.8 V 8 f B . '.O.O ",
"j z . . < 7.`.f. .o.v p . v n n $.0 <.3 p . v v.O.$.7.<.8 p u v v.3.#.7.c o p o < x ].$.7.c l p O j v.b.h  .c . x 8 8 v.5.g j z ",
"g.x c B 1 | j 4 r y . F v f ^ b.$.r y s F X.- 4 o.h . y O f X.9 $.5.o.c.% = F X.D o.4 j c.% e.1 h 9 o.#.0 % % h c B 9 b.#.s y 7 ",
"[.p M.s p j y v.{.}.s s o x  .y I.m.m.M.r s r 7.& |.}.V.0 r s 7.7.%  X.XN.0 r .  .v.c.XXoXy.0 r . ..c.v.OXoXy 0 s x b.% v.V.oX% ",
"h o c.< c ^ s @ V < A r < 9 o.s y.< j . r 3 D j s y.h 8 x M.< G  .A @ h 0 c.8 < P.7.p & c 0 c.< v ` s 7 7 c V c.< B ( s & u o.0 ",
"6 l . . * 3 D % 3 $ w . . * v E y z $ 7 . . +Xh 4 X N : 7 . . 3 F 5 & f m 7 . l 3 9 0 7 @X3 7 . t 3 + s . 6 * 7 . t 3 e . o @Xl ",
"* p . * a f 8 f x 8 % . +X: 2 < 4 % 8 & u D.: B X.h 7 8 & s 3 #Xh h < . o % o b $ < 1 0 . s 7 o d $ Z F s l . 7 O z =.8 f r * 7 ",
"< B 0 ~ G.v X.C h h < < I f < 2 S h h 8 c I f 3 f D h 4 O f q f = S $Xh 1 s ] ] F 8 C 1 h 1 s q 6 F 8 I 1 h 4 s ~ %Xc < I c $.1 ",
"G < v P J D &Xe.0 Y s - T ~ f *Xs o.Y A ] T ~ F *Xr 4 L . J =XJ 9 -Xx >.i A J.U ~ e ;Xv.` >.o ! U q E.} n [ 4 8 T { :X;X>.s >X< ",
"F 4 8 1 h  .f.5.1.+ g 3 - <  .$.5.6.+ < 3 9 j  .$.1.#.i j < >.j j #.Q.#.e 8 v 9 8 b.#.,X>.+ 8 B E 0 b.#.,X>.- 8 c ^  .f.6.Q.e 1 ",
"< s ] 4.Y <.E h c.0 8 ]  .Y h 9 j v.V < e ..~ h 9 0 n s v >.5 K #.e @.M.A f $.>.D n.>.c.8 A D o.e - %.9 c.= A ] ..K F >.E c.8 p ",
"<Xv 1 v r.< s o 7 7 1 h f L.0 s V % 1X1 X.e ^.M.s o ).u F < ~ Y M.s o > o - 8 L.+ s o A > 8 - 8 r.E s o . > < F 8 r.5 s o . > B ",
"= y % s p & 2 < O s y % 0 & q.f 8 O l y % 8 X u f 0 0 . y p 8 @ o 9 o = 7 & x 0 y.3 - s = % % . o y.v F s = % % A A @ c 4 o 0 % ",
" .7 * 8 s S S 8 c.n l o 8 O   =.s x v.o s 8 8 C f . n I.* s 0 3 q F x 7.a.3 o o 2 C c % 2X3X3 V s : C v %  .% , 0 s $ 6 < % 3.% ",
"j z & p 8 0 c.n c.o.v y . 3 s c.@.a.<.3 y u 3 r p.n c.<.* y u < x v.@.v.4Xl & o 3 c.`.v.`.c . % o = c.n v.@.c 7 7 * 8 c.@.I. .c ",
"p.s c v - ^ o.9 8 n s 1 < + $.f.E 8 n O F < ] <.$.F 0 n O F < ] o.#.^ s n 3 2 v + o.| c s n e.c B 9 b.%.h n s v B 1 9 o.>.< n l ",
"[.p 8 o p o.x 4.l.}.s 0 o x o.p 3.k.5Xs 0 s . j x 6XS.V.0 V s s j r 7X}.g.8 V . 0 7.M.8X}.y.j o . j n 7.9X}.y j o p j r 4.XX}.% ",
"p A r v c ^ & y.& p s r v F z.& g.p p A s v 9 7.& N.x p r V v ` @.& g.p . r Z h E.p.y y.r r r < h 0X% X y.r r r X.<.0X% X @ p s ",
"6 l y 7 * = D > v $ 7 % 7 3 < - @ f f % 7 7 # e.1 @ $ 2 > p 7 v 4 5 > 6 b X p . < - 0 7 q = X p u < >.A u q O X p o < e p * 6 l ",
"a s o 8 d f g h . a . O 8 a 2 h j k a x 0 3 a 2 h Z l z x 0 3 2 c h 0 O v . 0 # : h h s = 3 u 0 b f h h n # * s 8 d f h h . m k ",
"r o p M N B V C Z s A s : N < < S 0 s . o : N < v D 0 V p 8 : N Z 2 f s 0 7 v : F V D c s 0 % c N F V S h s 0 7 2 N 1 o C < s 8 ",
"G B B H J f K f < L 8 D P I 2 U v h Y V K T I c R < E W o Q ! ~ ^ / 8 ( G o ! ) q 9 _ 8 ` i 8 ' U ] e Q 8 [ - < H { 6 } K 8 W 4 ",
"F B 8 I 9 h |  ...] < X.~ F o.9 O.+.] 8 m ~ F o.| @.#.i V 2 ~ 4 $.%.&.*.e o =.K 4 -.#.;.:.>.o S ] 4 #.$.,.( E o   e <.| 1.2.( 4 ",
"1 V 9 3.4 j $.| @.h 0 - 3.c j E 4 3.h 8 E 4.h j | 5  .h < 4 ..h o.:.o.j j c g o.< 5.( 4.h 8 1 j 5 < 6.( 3.4 0 f 4.4 j 6.( 7.c r ",
"7 X.D h 8.E < o 7 7 c - E 9.h < s 7 7 1 F ] 0.h 3 A 7 q.f c Y w.h = r % s D e.r.t.h 8 x 7 o D < 0.K h 8 p 7 8 D < 8.+ h 0 p % 3 ",
"O s r 0 8 y.o 8 . l s r < s @ = o x l s . v r X < s . l s . h p & v s l s s . h y p h . . s s A h u.. < x k s n s < y.s < . l 0 ",
"j ; l V p : ~ B = n X . 0 . i.I < j p.7 . V .   C 3 e.a.w . s l s.C 8 o.d.l r r 8 I D 0 f.g.l s . # h.9 0 f.j.l s x m { F 0  .j.",
" .e.q.A 3 v r % k. .3 p o 3 < . y l.j 3 7 o X.= . y.g.z.8 7 o v 8 x g.x.e.o p * m s x l.c.e.s q.8 m s p k.v.v u . 8 v s c.k.7.v ",
"7.3 8 O 2 e. .| o.j = = o f  .z.9 j j = = o - 0 b.9 j j 8 = O - 7.5.>.4.< 8 8 8 F 7.#.E  .< 8 8 < 4 7.n.F  .3 8 0 h h  .%.<. .3 ",
"m.p h < 0 4 M.o.y k.. h < 8 4 M...y k.s h 8 < $.7...y g.0 h 8 < o.4.4.N.y.= h 0 h j ..@.g.y < v V c 4.o.r B.y e.< V 4 0 o.c.k.% ",
"V.x A 8 0 o.C.x.S.k.s r 3 j  .X Z.k.N.s r 3 e.7.X g.k.g.s r = 6.n X g.V.y M.s 8 *.c.y l.k.y M.V 8 A.y y l.k.c.s 0 Z *.X y S.k.p ",
"9 s y A v h 4 X v 2 x % u 2 e.h @ f c 7 p u f e.X.@ $ v & p s 9 h < > D 3 X r o 9 $.s 1X6 8 X A 8 E 4 . l %Xo X A < ^ 4 7 8 f $.",
"F.O O O # c 4 s O F.k 0 * b 2 h s = : . 0 * b 2 h r 3 : . 0 * m F o.r v z l 0 D.m F j r a qXs 0 D.z F 8 n : = o 0 D.c 1 0 s : 6.",
". p 7 # a c V S n . & . b N h < - . . y u d : < v 1 x . y o m f Z c c x . X * z f V $X< x . y , z f M.D 0 . x & 3 a F s S V . Q.",
"( 2 B T q c 6 S B K < D =X6 v ~ f 1 K 8 ] J.6 v { 2 E [ 8 Y J.6 v R B >.} 8 L.K.D c U v ( e 8 ! J G.F Q v ` 9 < w.~ f 9 ~ h [ >X",
">.< 3 R.] F } @. .i V 2 R.] ^ } I.$.] A f U 6 ^ } p.#.i A S U ] | ` I.%.+ A I J D U.%.7X( E s { ~ 9 T.+.&.` 4 0 U K 9 E.b.3.} wX",
"f j c Z < 0 o.%...- Z h ..8 0 $.#.b.F j h g 0 eX#.6.1.E < < o.0 ..%.6.$.4 v j o.0 b.:.5.E h h Z o.0 !.:.!.E g B Z o.0 5.:.!.E rX",
"q., ] o.tXF 1 0 % q.v e #.yX4 c A p . 2 9 >.uX4 c . x . f E G r.E c p p u D h / Y E h % . s ] o./.K E < & . o ] o.0.+ E j & 7 *.",
"iX< 8 < E (.. 0 7 w < V c h y s o % l g o 1 g y o s % t g s - Z y 0 s 7 * < s D r % 8 . <X8 < o + v.7 8 x <X3 j 0 D p p 8 . 7 0X",
"j j.7 s & 3 I c e.n y.7 V & 2 q v e.p.X 7 V & : C 3 <.a.> p s 7 $ K = <.g.% . r .   ] = <.g.7 . x l C D = o.j.7 s p * I f < eX&.",
"7.* o 8 3 f 3 % k.7.3 A 8 v F 8 y.g.7.3 r 8 m 2 0 g.x.7.3 r 8 z 2 O k.a.0 , s 8 2 v s V.I.0 8 o 8 : v . 5X`.O O V 8 f < . V.O.%.",
"o.c 7 7 8 r I.^ j <.v 7 7 3 c.`.E 4.4 3 % q.< c.@.E 3.^ 8 7 . j c.3.%.4.F o 7 u 0 c.b.#. .F u 7 o 0 c.5.4  .N . 7 O s p.$.o.o.pX"
};
