/* XPM */
static char *_ec56a92381c460ffee98eb43ec18ffbGDLKp92Z8EumbFFv[] = {
/* columns rows colors chars-per-pixel */
"64 64 233 2 ",
"   c #060A0B",
".  c #0A0D0D",
"X  c #0F110F",
"o  c #12130F",
"O  c #0D0E11",
"+  c #0D1211",
"@  c #141613",
"#  c #171814",
"$  c #1A1B16",
"%  c #15191A",
"&  c #1D1E19",
"*  c #1E201B",
"=  c #22231C",
"-  c #2A251E",
";  c #30271E",
":  c #1C2326",
">  c #242521",
",  c #272822",
"<  c #2B2B24",
"1  c #23252B",
"2  c #2C2D2B",
"3  c #362D25",
"4  c #2E312D",
"5  c #363127",
"6  c #33332D",
"7  c #383529",
"8  c #3B352C",
"9  c #3D392E",
"0  c #2B2D34",
"q  c #2E3338",
"w  c #333333",
"e  c #3A3534",
"r  c #3C3B33",
"t  c #34373A",
"y  c #3C3D3C",
"u  c #453628",
"i  c #423A2E",
"p  c #523D2C",
"a  c #433D34",
"s  c #4B3F35",
"d  c #433E3B",
"f  c #3F403C",
"g  c #57412F",
"h  c #454035",
"j  c #4A4236",
"k  c #45443C",
"l  c #4B443A",
"z  c #4E493D",
"x  c #534434",
"c  c #5D4532",
"v  c #5E4936",
"b  c #51463B",
"n  c #534A3D",
"m  c #5B4B3C",
"M  c #5E503C",
"N  c #614733",
"B  c #644A35",
"V  c #684D37",
"C  c #664C39",
"Z  c #694E39",
"A  c #64513E",
"S  c #6C513C",
"D  c #71543E",
"F  c #343940",
"G  c #3B3D44",
"H  c #3D4146",
"J  c #434344",
"K  c #4A4644",
"L  c #4C4A43",
"P  c #43454A",
"I  c #47484B",
"U  c #4B4B4C",
"Y  c #534D42",
"T  c #5A4E43",
"R  c #514E4C",
"E  c #5B5244",
"W  c #585546",
"Q  c #54524D",
"!  c #5C544B",
"~  c #454952",
"^  c #4D4D52",
"/  c #504F54",
"(  c #4D5156",
")  c #535353",
"_  c #5A5552",
"`  c #5C5A55",
"'  c #57575A",
"]  c #5D5C59",
"[  c #635344",
"{  c #6B5442",
"}  c #645946",
"|  c #6C5B45",
" . c #62564A",
".. c #6A574A",
"X. c #635B4C",
"o. c #6B5C4C",
"O. c #735642",
"+. c #735A45",
"@. c #645C53",
"#. c #6A5E54",
"$. c #625E5A",
"%. c #6D5F59",
"&. c #6B614E",
"*. c #7A6046",
"=. c #73624C",
"-. c #7C634C",
";. c #6D6153",
":. c #63615C",
">. c #6C645B",
",. c #6F695E",
"<. c #736454",
"1. c #7B6654",
"2. c #756A54",
"3. c #7C6C55",
"4. c #73665B",
"5. c #78675A",
"6. c #746A5C",
"7. c #7B6C5C",
"8. c #77715C",
"9. c #7C715C",
"0. c #5A5D63",
"q. c #5D6567",
"w. c #656463",
"e. c #686762",
"r. c #6D6A64",
"t. c #66656B",
"y. c #6B6B6B",
"u. c #746C63",
"i. c #7A6E62",
"p. c #756D69",
"a. c #767066",
"s. c #7D7263",
"d. c #74716A",
"f. c #7C736B",
"g. c #676A73",
"h. c #746F71",
"j. c #6D727B",
"k. c #797676",
"l. c #7D7974",
"z. c #80654D",
"x. c #836A52",
"c. c #816D5C",
"v. c #83725D",
"b. c #8A725C",
"n. c #8C785D",
"m. c #847464",
"M. c #8A7662",
"N. c #867965",
"B. c #8C7B63",
"V. c #83766B",
"C. c #897768",
"Z. c #83796D",
"A. c #8B7C6C",
"S. c #927D65",
"D. c #997F65",
"F. c #917E6B",
"G. c #847B72",
"H. c #8A7D72",
"J. c #837C7A",
"K. c #917F72",
"L. c #8B806D",
"P. c #958266",
"I. c #94836B",
"U. c #9B856D",
"Y. c #8D8175",
"T. c #878179",
"R. c #8C837A",
"E. c #938474",
"W. c #998674",
"Q. c #9C8A74",
"!. c #92857A",
"~. c #988779",
"^. c #96897D",
"/. c #9B8B7C",
"(. c #A2876B",
"). c #A28B6E",
"_. c #A38D73",
"`. c #A98E73",
"'. c #A18E7B",
"]. c #A79377",
"[. c #AC9376",
"{. c #A5927D",
"}. c #AC947B",
"|. c #B39675",
" X c #B1967B",
".X c #B49A7D",
"XX c #B99D7E",
"oX c #C4A47F",
"OX c #767883",
"+X c #8B8583",
"@X c #958B83",
"#X c #9B8E83",
"$X c #968E88",
"%X c #9D9185",
"&X c #9C928A",
"*X c #A18F81",
"=X c #A39383",
"-X c #AA9682",
";X c #AC9984",
":X c #A39589",
">X c #A8978A",
",X c #A79A8C",
"<X c #AB9B8B",
"1X c #B49C83",
"2X c #B99E83",
"3X c #B39E8A",
"4X c #AB9E92",
"5X c #B09F91",
"6X c #BCA285",
"7X c #B7A38A",
"8X c #BCA48A",
"9X c #B4A394",
"0X c #BAA895",
"qX c #BBACA0",
"wX c #C3A686",
"eX c #C1A981",
"rX c #CAAB84",
"tX c #C1A78B",
"yX c #C4A98C",
"uX c #C9AD8B",
"iX c #CBB08D",
"pX c #D0B08C",
"aX c #C5AC92",
"sX c #C9AF92",
"dX c #CCB293",
"fX c #C6B59B",
"gX c #CCB69B",
"hX c #D1B493",
"jX c #D0B598",
"kX c #D3BA9C",
"lX c #C9B6A4",
"zX c #D3BDA3",
"xX c #D8C3AA",
/* pixels */
"Z N c c N N Z c V Z c c c V V Z c V +.f.J.4.O.S O.S +.+.C N N V Z B c Z V c c N V Z N N S V c c N V Z N N S N c c N V Z N N Z N ",
"V N N V V Z V V N V N N V V V V Z +.A.:X>X-X X}.1X1X3X3X=XV.>.#.X.Z N N V N N V V V V N V V N N V Z V V N V V N V V Z V V N V N ",
"N N N V V V N Z V N N N Z S =.C.=X9X0X0X8X6X6X6X8X0X3X#XJ.t./ U ! S Z N N N V V Z N Z V N N c V V Z N Z V N N N V V Z N Z V N V ",
"S V V D S Z S Z V S { c.~.,XqXlXlXaX7X1X}.}.}.}._.W.V._ d e e y l { V Z S N D D S Z S V S Z V D S Z Z S V S Z V D S Z S S V S C ",
"Z V V S Z V Z N C <.!.,X9X0X0X0X7X}._.U.U.W.W.W.S.v.#.Y e 3 3 8 a C N C Z N Z S C C C N Z Z N Z Z C C C B Z Z N Z Z V Z B N Z C ",
"Z N Z N C V C [ %.Z.!.K.F.U._._.U.S.M.M.S.F.F.C.C.C.m.;.K e e J 4.b.S V V V V V V C Z N V V Z V B V C Z N C N Z N C V C Z N V N ",
"N V Z V O.Z C #.p.V.V.<.=.1.c.1.+.1.m.F.W.E.M.m.C.H.H.m. .K R u.=X;Xb.N N Z V D S V V N N N Z V O.S V V N N V Z V O.Z V N N c V ",
"N N N N V C %.k.+X+XJ.4.....o.{ { <.i.Z.V.@.@.i.V.H.!.A.i.u.f.&X9X9X1Xb.V N N V c N V N N N N N V c N V N N N N N V c N V N N N ",
"V c N N C >.h.k.k.k.i.<.#...[ C [ T d w w K 4.A.!.^.!.H.H.E.#X4X9X9X7X1XS.O.N N V S Z N V c N N N V S Z N V c N N N V S Z N N c ",
"N V N B #.e.$.@.@.>.>.#...{ { o.X.K y e k ..m.A.Y.@X&X#X!.E.~.>X9X0X3X1X6X.XD.-.S N N c c V N N V V N N c N V N N V V N c c N V ",
"N V A >.r.w.:.$.%.>.#.....o.1.7.7.i.i.5.<.7.m.V.G.@X&X#X^.*X'.=X<X9X9X9X8XyXyXyX Xb.+.Z N V V V V C N C Z N V V N V V N Z V N V ",
"c ..d.k.j.g.w.:.>.#.;.<.1.7.c.c.m.C.V.M.c.m.m.V.R.&X&X%X^./.=X>X<X5X<X>X3X8XyXsXjXkXaX_.-.N V V N V N V N c c V V N C N V c c c ",
"#.k.OXOXOXj.t.$.#.<.5.7.m.M.M.C.C.C.C.C.C.A.H.H.!.@X#X#X#X#X#X:X5X<X<X<X-X1X6XyXsXzXxXxXzX1Xb.D V C c c c c c N N V C c c c c N ",
"h.g.g.g.j.j.y.:.#.6.m.m.C.A.H.!.!.E.H.H.H.Y.^.@X@X@X@X^.!.!.#X:X,X<X<X-X;X3X.XXXyXsXgXzXxXxXkXwX(.x.S N N Z N c N V C C N V Z N ",
"0.0.0.g.j.j.y.:.:.u.V.V.V.H.!.@X!.Y.H.H.A.H.Y.@X#X@X@X#X#X#X#X,X-X=X>X>X-X;X}. X2X6XtXsXlXzXxXkXkXdX.X*.N V V N N V V Z N N V N ",
"P P H H ( g.y.w.:.u.f.G.H.H.V.Z.A.A.H.H.H.Z.Z.H.Y.!.@X&X:X:X:X:X,X<X{./.{.]._.`.|.XX6X8XsXgXzXxXzXhXrX|.+.N N c V V Z N Z N N N ",
"2 0 0 1 q ~ 0.y.y.d.G.R.R.H.s.i.s.Z.G.G.G.Z.Z.Y.R.!.@X#X:X,X4X4X<X<X<X=X].-X_.].`..X2XtXaXdXgXzXzXkXpXrX|.z.Z V D S Z Z S V S Z ",
"6 2 0 0 q G ' y.d.f.R.@X@XR.G.Z.Z.H.R.R.Y.H.H.H.!.!.!.#X%X&X4X9X5X,X<X<X{.{._.`.[.[..X1X6XyXsXdXgXkXjXhXhXwX-.V D S Z S C N S V ",
"r 6 2 > 2 P w.k.k.J.@X&X$X^.R.R.J.G.V.G.H.H.G.G.Y.!.^.@X:X,X,X4X,X-X<X<X{.]._.(.`.[.2X6X6XaXaXaXdXdXdXdXhXdXXX*.V V N B Z B Z V ",
"d w 2 2 w ^ y.l.J.T.@X$X$X@X+XJ.f.G.Z.Z.G.G.f.Z.H.R.@X%X@X%X4X4X<X:X=X-X{.{.}.U.(.`.[.1X2X8XtXaXyXdXdXjXhXhXuX[.O.O.Z Z V c N N ",
"b y w w y ^ y.k.l.G.G.R.R.R.R.R.f.u.a.f.f.a.u.i.s.H.^.^./.#X:X,X,X:X/././.'.}.`.). X.X X[.[.}.1X6XwXyXuXuXiXiXuXU.D N N V N N V ",
"C K y t J ) w.d.k.l.l.d.p.p.f.l.d.>.@.>.u.u.4.u.s.Z.Y.!.#X:X%X%X>X:X#X~.~.U._.`.}..X8X6X.X`.).`.[..XtXwXuXrXrXrXeXb.V Z Z V V c ",
"N T P G y P ) _ ] @.@.>.:.@.;.>.r.@.! ! ;.4.4.4.s.Z.A.E.#X:X%X^./.^./.=X=XQ.-X}.}.1X1X1X}.`.`._.(.`.6XyXyXwXoXrXuX6Xx.Z N c N N ",
"V C b k y y H J J k z ! @.@.! ! ! ! Y ! @.>.6.u.s.Z.A.~./.~.E.!.#X#X/.-X<X{.>X3X1X1X}..X}.(._.`._._.}.6XyXwXwXuXuXsX}.+.C V N V ",
"c N V B B n k d h l j l L Y L k l Y Y ! #.;.6.i.i.s.m.A.~.E.H.H./.=X=X-X<X>X=X<X3X3X3X}..X}.`._._.).`. XXXwXuXuXiXdXdX_.O.N c N ",
"g N N N N N c v c m m h 8 7 8 9 k b Y ! #.>.6.6.7.s.s.m.E.!.H.H.Y././.-X-X<X:X>X;X-X1X7X;X{.}.].}.[.`. X.X2X6XuXdXjXkXfXI.N g c ",
"V N c V V C N c N C A n i 9 9 a l Y T ! X.o.<.7.7.7.7.m.E.~.H.!.E.~.~.~./.>X<X-X-X=X{.{.;X{._.[.}.].`. X2X6XtXwXyXdXkXkXfXM.S N ",
"Z N N N V V Z c V Z A m j h a a j n E [ X.o.o.o.o.<.<.v.C.E.Y.E.#X/.^.!.^.=X-X=X#X~./.'.{.}.}.[. X[.`.[.6X6XtXaXsXaXsXgXzX0X-.V ",
"V c N V V V V Z N V C [ n j j j j b m E [ [ [ [ ..<.<.7.m.C.A.E.%X#X#X^.^.#X:X#XE.~.W.W.{.;X1X.X2X6X X|. X6X2X6XaXsXdXgXgXfXI.S ",
"V V N S Z V V Z V V +.<.} n x x x x b m [ [ ..o.<.<.<.<.5.m.V.A.~.E.E.^.^.#X^.^.!.~././.*X-X1X1X1X2X6XXX.X1X6X8X6X6XyXsXdXfX7X1.",
"S V V D S Z S V N +.b.A.<.[ E E E [ [ ..o.<.<.<.<.<.;.<.4.m.s.i.A.E.A.G.H.^.R.!.!.^./.=X=X=X;X3X3X1X1X1X.X6X1X2X6X6X6XtXdXgXfXS.",
"C C V Z V N V C V x.Q.~.s.&.....o.o.<.<.4.5.5.<.<.<.5.7.5.6.7.7.7.m.V.G.G.G.G.G.R.E.~./.=X*X=X<X3X1X1X1X XXX.X.X6X6X6X6XtXdXdX}.",
"V N Z N S V Z V N b.{.~.m.4.;.o.o.....o.;.<.<.4.4.7.s.7.4.5.6.6.4.>.>.f.f.f.G.H.!.H.H.~./.#X=X-X{.{.1X2X.X.X.X1X.X.XXX6X6XwXdX8X",
"c V Z V D V N N V M.{.~.Z.6.<.;.<.<.<.;.;.<.<.<.<.5.<.;.;.<.;.>.>.>.4.u.a.f.V.f.Z.Y.H.H.E.~.W.{.{._.}.2X.XXX6X6X X X|..X2X2XtXyX",
"V c c N N c V V Z S.{.W.m.6.>.;.;.<.;.o.>.6.4.;.;.<.o...o.X.@.#.;.4.u.u.6.p.f.f.p.f.Y.Z.s.H.E.F.W.{.Q._.2X.X.X6X[.[.[. X.X6X8XaX",
"N N V N N Z Z V C M._.I.s.>.;.o...o.o.;.<.;.;.;.;.o.....[  .#.>.,.u.f.V.p.p.p.p.u.u.V.V.V.i.A.E.M.U._.U.]..X}..X6X[.}.}.}.7X8X0X",
"V V c N V N c N B b.Q.I.9.<.;.@.E E } &.;.;.;.o.o. .E [  . .@.>.,.u.p.G.G.Z.f.f.p.u.i.m.i.5.m.C.B.B.U._.)._.}.].[..X_.].].{.7X8X",
"c N V V Z C V Z Z b.Q.P.9.6.6.>.! n T X.X.X.X.E E m T T E  .@.>.>.p.u.u.G.Y.G.V.f.a.u.s.s.<.<.7.v.b.n.U.).]._._.P.)._.U._.{.;X7X",
"g N V N N V N N v c.U.B.9.5.u.u.@.E T E ! E n l n n T E ! ! X.>.>.u.a.p.f.J.R.G.f.p.u.a.i.<.o.=.3.n.b.S.I.).]._.I.P.Q.U.W.=X-X{.",
"N N N V V C c c N 1.A.B.v.s.G.f.;.E n n n T z l l n n T T E ! X.! #.u.f.f.Z.R.Y.G.u.u.u.6.o.o.| 3.v.B.n.n.I.Q.U.I.B.I.W.W.'.{.Q.",
"Z N c N V V Z c V -.B.A.N.Z.G.a.X.n l n n n j k l l b n T E ! T n T #.6.,.p.G.T.J.G.f.a.i.;.| | =.3.S.n.B.B.I.B.P.N.v.A.W.~./.I.",
"V N N N V Z V V N +.M.L.Z.V.f.u.! l j z z l k j l z l l n T E T l k Y @.4.>.p.f.l.J.T.Z.Z.i.&.| =.3.N.B.B.B.N.N.N.B.M.C.E.~.W.B.",
"N N N V V V N Z V S v.A.s.i.s.u.@.Y h j l k k k k z j h j l n n b k a Y ! @.>.u.r.d.l.Z.V.s.o.=.=.2.v.N.N.B.N.9.3.m.m.A.~./.E.c.",
"S V V D S Z S Z V { <.s.5.>.u.u.>.! k r d a d d l k a i i j l j j a j E @.>.r.r.r.u.p.f.Z.a.;...<.<.<.3.9.3.7.2.<.7.9.Z.E./.E.-.",
"Z V V S Z V Z N V Z { 2.4.>.u.d.r.` K r r r r r d d r 8 9 9 9 i i 9 k Y $.r.d.r.r.p.p.f.f.,.E [ o.&.&.2.=.&.&.<.;.<.9.Z.A.E.L.+.",
"Z N Z N C V C Z N V C o.;.;.,.a.r.] U J e 6 6 8 r r 8 6 6 5 5 5 5 8 d K _ :.:.e.:.p.f.f.u.! j E E X.&.&.&.o.} o.;.<.5.s.N.A.v.C ",
"N V Z V O.Z V N N N V C  .@.>.u.r.] _ U y 6 < - , 5 6 2 < < < < < < 8 k Q ` w.e.e.y.d.d.r.W z T T X.;.} X.} E E [ &.2.7.s.9.| C ",
"N N N N V c N V N N N N m E :.r.e.$.] ) J e < * $ & > < , , - - = = , y _ ] ] :.w.r.r.u.r.W z n n T E E E n E n n X.<.8.s.2.A N ",
"V c N N N V S V N N c N N m ! :.:.` _ Q I y 4 = # @ # & = = = * $ $ = e ) ] :.:.w.e.r.u.>.Y Y z W z z T E E W E W X.>.8.8.=.C c ",
"N V N N V V N c c N V N N v j L _ Q Q Q I f 4 > & # # $ $ & & & $ $ = 8 R _ ] :.:.] ] :.Y k Y z Y W l j l Y n E ! X.>.8.2.A B V ",
"N V V N V V N Z V V V V N Z x a k L R Q U k 6 , = & $ $ & & & & * & = 8 R _ ` ] ] ` ` Q h h Y Y z K k d 9 h l n W W X.6.2.S N V ",
"g N V V N C N V c c N V V V v i 9 d K ) ) J 6 > = & $ & = = & & & & - w I U Q Q Q _ Q k r d k L L k r r r a k z ! W W &.| N c c ",
"c N N V N V c c c c N N V V N g a y J ) ) I 6 = = * & $ $ * & & & * > w K I I U Q _ ` f 8 e r y y 6 2 5 6 r h h L Y W } v c c c ",
"Z N c N V V C c V V N c N V V B j k J I ) U w = & & $ # @ $ $ $ $ $ * 6 J I U U Q ` :.k 6 5 6 5 2 , = - > 5 r 9 r z M C N V Z C ",
"V N N N V V C N N V N N V V V C n K I U U P w & $ & $ # @ @ @ @ @ @ # < I ) ) ' ] :.] f < < , > & # # & * < 6 8 9 v V Z N N V C ",
"N N N V V V N Z N N c N V V V C E ) ) ( ( H 1 + + @ @ @ @ # @ @ @ o @ = k U ^ ' ] w.:.6 > * * # + . X @ @ > < 9 c V Z N Z N N C ",
"Z V V D S V Z Z V S V Z D Z V { ! ) U ^ ( H * . . . . . + @ o o @ o o $ w J U ) ] ] Q 2 & @ $ @ O   . % @ @ 6 c D S Z Z S V S S ",
"Z V V D Z Z S N N Z N V D Z C [ ! ^ P P I t % + . .       . . . . . . @ > w H ^ U J y > - u p - O . . % 1 @ 1 b S S Z S V N S Z ",
"Z V V V V N V Z V Z V V B V N T U P G G G y 5 - @ O               . . X & w P I P f y a v V N 3 @ @ + : q % : K N B N C Z B Z Z ",
"N V Z V O.C Z N c N V Z C O.C Y P G G F t a S N x u ; = = ; 3 u u u u u 9 t P I P J y L v N Z v v c 5 w y 3 i C V O.Z Z V c N C ",
"N V V V Z c N N N N V N C [ _ ) P G y t e x V c N N c N N N C N c N N c s t H I ~ ^ ^ ^ ! V V N Z v c N c c V V N Z N N V N N S ",
"N c N N c V Z V V N C @.` R J y G G w 2 a N c Z Z V V c c N N N Z S V v a w w J U / ' G ^ x N N N N Z Z V V c N N N V S Z V N N ",
"N N N V V Z V c c M :.q.) l s d U P 4 5 p V V V N c c N V N V V V N x L y 6 e J I J J J l x V N V V V N g N N N N V Z V N c N C ",
"V V c c V N v C V B A m m N c v [ m x x c N V c N Z N C V N N V c v E E m b ' ] m x d Q A V N N N N c C C N V N N N N c C V V S "
};
