/* XPM */
static char *cb4a6fde22ef4f18fe7f2ff94a7872cafTRfsLPfVEqFnosd[] = {
/* columns rows colors chars-per-pixel */
"64 64 236 2 ",
"   c #000A2C",
".  c #000E35",
"X  c #001434",
"o  c #001B3D",
"O  c #00173A",
"+  c #00112C",
"@  c #06203B",
"#  c #001C44",
"$  c #001E4A",
"%  c #001746",
"&  c #001F51",
"*  c #012245",
"=  c #01244C",
"-  c #03284D",
";  c #0B2A4B",
":  c #092644",
">  c #122E4B",
",  c #132B45",
"<  c #012553",
"1  c #022A54",
"2  c #0A2D54",
"3  c #002658",
"4  c #022D5B",
"5  c #0C2E5B",
"6  c #082753",
"7  c #0E3054",
"8  c #03315C",
"9  c #0B335C",
"0  c #0C385F",
"q  c #13355B",
"w  c #15395E",
"e  c #1B3C5C",
"r  c #153455",
"t  c #152F52",
"y  c #213E5D",
"u  c #032F61",
"i  c #043363",
"p  c #0B3663",
"a  c #0D3A64",
"s  c #0C3C6B",
"d  c #083767",
"f  c #123562",
"g  c #143B63",
"h  c #1B3D64",
"j  c #133D6A",
"k  c #1A3E6A",
"l  c #093E73",
"z  c #133F71",
"x  c #203B6A",
"c  c #0E416E",
"v  c #1E4165",
"b  c #15426C",
"n  c #1B436D",
"m  c #0C4575",
"M  c #144473",
"N  c #1B4572",
"B  c #1C4A74",
"V  c #15467A",
"C  c #154B79",
"Z  c #1C4B7B",
"A  c #194676",
"S  c #1E517C",
"D  c #14537F",
"F  c #22446C",
"G  c #25496E",
"H  c #274768",
"J  c #224672",
"K  c #234B75",
"L  c #2A4D73",
"P  c #234D7A",
"I  c #294E7A",
"U  c #275176",
"Y  c #2D5175",
"T  c #25527C",
"R  c #2B537D",
"E  c #2E5A7F",
"W  c #32557B",
"Q  c #335A7D",
"!  c #3B5B7D",
"~  c #385676",
"^  c #314A68",
"/  c #405B78",
"(  c #1A4F82",
")  c #1C5382",
"_  c #1B5687",
"`  c #224F80",
"'  c #245483",
"]  c #2B5583",
"[  c #255984",
"{  c #2D5A84",
"}  c #255689",
"|  c #2A5689",
" . c #255A8C",
".. c #2C5C8C",
"X. c #315682",
"o. c #335C84",
"O. c #3A5D83",
"+. c #335D8A",
"@. c #395E8A",
"#. c #2C5D92",
"$. c #265E91",
"%. c #335F91",
"&. c #325F98",
"*. c #2D618D",
"=. c #3C6186",
"-. c #35628C",
";. c #3B638D",
":. c #396488",
">. c #2D6293",
",. c #2B6898",
"<. c #346493",
"1. c #3B6693",
"2. c #346995",
"3. c #3C6994",
"4. c #35659A",
"5. c #3B6799",
"6. c #366A9B",
"7. c #3B6C9B",
"8. c #3D719D",
"9. c #36719E",
"0. c #3A6DA3",
"q. c #336AA2",
"w. c #3D73A3",
"e. c #3776A8",
"r. c #42648B",
"t. c #446A8D",
"y. c #486687",
"u. c #416691",
"i. c #436C95",
"p. c #4A6D94",
"a. c #436D9A",
"s. c #496F9A",
"d. c #45729C",
"f. c #4A739D",
"g. c #497197",
"h. c #53769C",
"j. c #54799E",
"k. c #426DA1",
"l. c #4374A4",
"z. c #4B76A2",
"x. c #4579A5",
"c. c #4D7AA4",
"v. c #4476AA",
"b. c #4A76AA",
"n. c #457BAC",
"m. c #4C7CAB",
"M. c #527CA5",
"N. c #5A7DA3",
"B. c #527EAA",
"V. c #597FAA",
"C. c #5177A3",
"Z. c #4C7EB1",
"A. c #457FB1",
"S. c #537EB0",
"D. c #3C80B1",
"F. c #4D82AD",
"G. c #4681AD",
"H. c #5582AC",
"J. c #5A84AD",
"K. c #5B82A8",
"L. c #4583B2",
"P. c #4D83B3",
"I. c #4E84B9",
"U. c #4C8AB8",
"Y. c #5384B4",
"T. c #5B86B2",
"R. c #5589B5",
"E. c #5C8AB4",
"W. c #5285BA",
"Q. c #5986B8",
"!. c #558BBA",
"~. c #5B8CBB",
"^. c #5D92BD",
"/. c #5591BE",
"(. c #6488AD",
"). c #6187B2",
"_. c #628CB5",
"`. c #628DB9",
"'. c #698CB4",
"]. c #6692B7",
"[. c #6491BB",
"{. c #6A94BD",
"}. c #6B95B7",
"|. c #7195BB",
" X c #5A8DC2",
".X c #558EC1",
"XX c #5493C3",
"oX c #5C92C1",
"OX c #5E99CA",
"+X c #4E8AC0",
"@X c #618EC2",
"#X c #6395C3",
"$X c #6C97C1",
"%X c #6499C5",
"&X c #6C99C4",
"*X c #6396C9",
"=X c #649ACA",
"-X c #6B9CCB",
";X c #6C96C8",
":X c #719CC6",
">X c #749EC9",
",X c #789FC5",
"<X c #689DD2",
"1X c #749FD4",
"2X c #5FA3D4",
"3X c #66A1CE",
"4X c #6CA1CD",
"5X c #6EA8CE",
"6X c #75A1CC",
"7X c #7AA4CE",
"8X c #7BA1C7",
"9X c #6DA2D3",
"0X c #6AA7D7",
"qX c #74A5D3",
"wX c #7BA6D1",
"eX c #73AAD4",
"rX c #7DA9D3",
"tX c #73A9DA",
"yX c #7AADDC",
"uX c #75A4D9",
"iX c #7BB1DD",
"pX c #77B1D7",
"aX c #76AFE1",
"sX c #7DB2E1",
"dX c #7AB8E9",
"fX c #7EBAF0",
"gX c #81ACD6",
"hX c #83AED9",
"jX c #85B2DC",
"kX c #89B4DE",
"lX c #80A6CB",
"zX c #82B5E3",
"xX c #89BAE5",
"cX c #92BEE6",
"vX c #95C8F3",
"bX c #91C6F1",
/* pixels */
"q O.W q F O.Q F 5 - 6 h W r.p.s.b.W.0.0.W.v.#.e.) ) _ _ C m m D >.6.!.-XH.1.K 6 w 7 5 h x 5 f @.@XuX<XY.v.Z.b.4.} s s | %.( A ' ",
"=.Y v v h q 7 F O.n q k F g 5 5 u 4.q.#.Z.9X<XOXtX0X*X/.XXOXoXU.n.e.w.7.Z 1 $ # = w k h h k J +.5.v.Y.P.Z.Z.Y.R.| } ..<.7.k.k.k.",
"R b g j 0 4 4 4 3 ] 1.N p N P A V l V 6. XOXW.n.*X0X3X!.G.U./.!.>.) m m c 8 9 U R W I ] f.B.f.1.l.<...<.7.4.4.7.| A A ] P u 3 d ",
"] b s p 1 p A s z < $ M <.7.m.*XP.I. X XW. XI.,.$.>. . .2.n.G.G.U.L.9.2.2.T b ] i.a.i.1.T 8 3 s s i s | 1.<.+.<.3 3 z 5.l.+.` ] ",
"Z 4 d ' ' #.v.!.n. .m V l d $.OX9X>. .P.n. .$.6.0.w.n.P.n.x.G.oX=X0X3XoX%XH.*.[ -.T M S *.' c s i i i 4 4 i s N a.B.a.] ] z.b.+.",
"@Xb.#.V l #.W.<X<X=XI.e.+XdXfX0XU.L.w.$. .n.oXn.sXyXzXbXbXyXyXxXbXvXvXxXpX%Xx...i -.l.7.8.n.U.!.7.1.] T <.H._.T.1.3.] j N +.1.R ",
"d %.b.l.b.m.0.>.n.n.XX0XOXe.q.L.L.n.I.U.9.2.!.sX~.7.>.P.yXzX-Xm.F./.5XeX-X%X%X^.-XiXyX-XqXaX=XP.[.[.E.T.E.T.3.N j j ] a.z.X.j 9 ",
"a.b.b.b.4.i % 4 3 i _ e.q._ ( _ XX,._ n.9X0X*X~.w.m.Y.Y.b.7.7.<.C B -.<.C s B S *.w.P.~.=X*X.XoXl.H.H.3.N p b T f j N P I I I P ",
"J.T.z.a.c.1.' | 5.2.F.P.=X/.n.C  .2.!.3X%X=X%XG.-XY.<.Z M M Z Z 5.H.l.{ ..B 1 = 3 i s ( ' Z ' l.x.d.<.-.c.{.E.i.d.c.3.+.;.] P @.",
"$ 7 j R i.f.f.T.c.c.6XjXiXR.R.R.G.=XiX!.) [ P.=XtX-X#X~.Y.m.m.B.wXE.3.....<...Z i V ( #.6.<.( Z M 8 = 1 b K [ { {.E.1.B j 4 $ = ",
". # = 7 J { d.`.wXE.[.6X6XT.R.!.pXeXiXiXeX4X#XF.s >.Y.*XqXzXyX-Xa.] P N s <.Z.4.A.!.~.Y.~.T.l.4.<.M 1 # # < s T s B Z ' i.z.1.+.",
"g q 2 1 9 n 1.T.H.E.6XrX&XT.T.H.2.S M ..8.n.!.%XP.R. X=X<X9X-X#X~.c.B.Y.l.l.Z.n.n.*XtXyXqXT...Z [ <.<.Z c c i < < 1 3 1 N 1.l.a.",
"# = 0 B K B B B j b | d.d.c.c.d.H.x.d.2.*.[  .7.-Xl.w.oX=Xb.<.6.m.7.7.*XsXoXL.=XtX9XoX!.R.l.d.F.2.7.*.C C ..<. .4.7.l.4...] M < ",
"{ T T T b a p 8 8 % # T 7.m.a.-.d.[.&X^.%X-XQ.x.7.*. .6.P.!.m.7.6.Y.I.!.0X0XOXaX.Xe.,.n.^.!.F.!.x.6.2.w.n.b.b.x.!.m.l...M M V s ",
"x.x.^.4XF.*.s # 8 c  .Y.m.P.l.l.H.[.H.{ T 3.^.xXxXxX-Xm.P.9XaX9X3XbXfXXXe.D.e.,.2XU.q.w.^.5XeXjXeX!.w.8.w.n.I.~.n.w.l.l.<...} V ",
"F.8.d.l.*.>.7.6.) ) s i 4 4.w.<.b a 1 9 j p T [.6X~.^.yXtX~.~.tXbX3X0XdX0XXXXXL.L.U.L.G.!.^.H.G.0XtX-X~.oX-X*XY.*Xn.l.w.#. ...( ",
"{ -...N M <.v.m.w.*...7.c.<.B p 9 4 # 3 a a p $ N P z.wXqXY.F.%X2.4.P.-X*XoXoXP.!.4X9X%XoXR.6.M c x.*X%X%XY.2.*.6.!.6... .Z  .>.",
"4 1 < 3 i Z <.7.-X*X-XyXrX&X`.`.] +.] X.I b N j b a j ..H.#XT.7.Z C [ 7.l.b.G.m.qX-X!.8.>.>.>.*...i 8 2.*XR.7.7.C ..4. .} #. .} ",
"< 4 j s 3 4 | W.4...' ' T C T { :X{.z.z.c.c.T.B.1.m.E.T.m.T.~.!.qX=XP.x.m.Y.~.=Xn.R.*X=X!.l.7.8.^.H.H.^.&X6XqX-X7.7.~.m.l.~.Z.m.",
"j j P %.7.<. .} 3 3 3 i c M b b 4 T 1.a.-.Z | | m.E.6XjXzXyX6X-X-XiXzXsXsXoX7.6.*XR.b.b.~.9XsXzX~.2.d.[.T.7.5.a.Z M .. .' l.Y.Q.",
"Z N p u s ) #.>.>. .Z V C ' ......] B <.T.&XwX-X%X!.c.8.x.~.#X#X%X*Xx.....6.P.uXoX9XqX-X-XqX-X~.m.<.d.m.<.C a < s i i Z s s ....",
"P a.Q.R.v.v.A.W.I.I.0.( d i s M { 7.a.c.l.<.<.| l.H.8.d $ i [ -.....) c M ' l.oXm.w.>. .m.9X-Xm.m.~.^.l.8.H.7.s M Z M ' Z i Z M ",
"B.b.l.m.Y.Y.A.v.,.n.I.n.6.>.} Z 4 < O 1 M Z S d 8 M S c c S S s C ' ..<.......' ..Y.~.<.4 3 s ..T.3.[ d.-XrX-X#X+.a.7.5.l.m.m.l.",
"B.a.5.m.Z.l.0.v.n.n.0.>.4.l.l.6.' ..*.x.H.x.8...[ S S ' *.8.T.%X~.~.-X-X#X*X#Xl.~.m.7.2.4...Z M < b b 1 i N | 7.7.d.<.i M 1.Z Z ",
"j d.`.l...>.0.6.#.>.>.A. Xl...7.R.#X6X%Xc.l.F.T.Q.T.T.!.T.H.R.#X~.m.7.7.l.Y.Y.m.m.l.b.Y.7.' ..m.3.d.{ -.| T s ..<.H.Q.5.' | ] Z ",
"= j ;.c.l.7.6.w.0.0.0.Y.-X*Xm.7.!.x.x.m.<.S 2.^.[.4XeXeX%X^.#X4X~.*X-X~.l.....7...7.R.uXyXqX#X~.~.[.[.[.H.H.m.l.m.| ..Y.R...Z ..",
"9 8 a Z [ ..7.P.m.W.!.v.4.m.-XuXqX-XH.5.7.m.d.[ ..H.&X!.~.wXrX#X5.7.m.Q.R.m.l.b.m.Q.@X#X-XyX1X~.{.[.&Xf.K { H.B.a.j $ 4 s 8 4 a ",
"o = 1 1 8 s M Z } Z Z M z | k.5.[ C s s c M -.!.<.+.Z b { T.&X&XT.7.| ..<.<...' P 4.l.7.7.m.~.[.H.:.T 8 b R 3.T ] ] P b P 1.1.] ",
"j.f.;.J b K -.d.#X7.%...Z P ] T i c b Z T M M -.7.P B 3.d.] N B m.7...' ` ' ..4.` ' ' z i j ..d.b B n = 9 a 3.[.T T ] +.-.-.+...",
"; w O.K.{.$X>XgXwXQ.m.l.%.] i.T.c.8.a % 8 | <.a.B.d.+.P j p 9 8 s ' 7.m.S.Q.R.S.l.1.| Z Z ' 5.m.&X:XM.R R p < 8 -.-.3.z.B.c.a.3.",
"o o - g K R ] ] 1.' P a.`._.J._.6X4XQ.m.a.B P T.a.H.z.R N ] P 4 % 4 j M ` ..A 3 $ 3 d Z ..+.<.1.;.].7X6XH.;.b 8 % p { i.z.z.;.P ",
"F G n g U i.-.j i i 3 3 4 < = b { E.6X6XwX{.J.$XwX`.M.c.M.a.1.+.| %.' j Z b.~.T.m.Y.m.5.' ' ' P { o.:.i.:.E.c.n a.B.`.{.J.f.f.J.",
"N i.i.{ d.[.[.R.~.<.#.b.l.T j g n J K { i.;.K n K K a.E.:X>X_.`.R.-XyXyX*X7.4.m.%XtX=X9X=Xm.b...1 = * # 8 -.F.m.7.[ s 1 = = w G ",
"s | c.d.B b Z Z 6.0. XuX-XE.B.j.U ;.d.M.M.i.o.;.N U a.a.3.d.H.wX4XqX9X-X9X%X~.^.yX9X-X-X9X4X!.c.;.Q Q o.{ <.8.7.!.P.8.T q w L y.",
"S.1.z.c.Z c S M s V &.v.Y.$X>X].$X&X:XrXgX&XH.H.[ B +.l.*XuX#X~.-XzXzX~.7.<.x.%X^.x.!.R.-XxX9XwX|.}.}.].T.T.^.R.l.~.#XE.i.Y h 7 ",
"s % 4 o.d.H.[.H.}  .#.| Z n 9 O 1 8 n d.&X-X&XwX-X#X*XZ.7.4.' ' ' <.d.m.Q.m.-.[ <.7.T.7.Z S 2.6X}.}.}.E.H.H.Y.w.<.*.T n K O.O.~ ",
"+.N 4 1 b ] 3.m.Y.v.4.V & $ 9 n P -.c.`.$XT.c.Q.-X*X-X*X-XqXoXY.7.T b { E.[.H.H.-.5.5.c.d.{ -.:.Q Q t.K.[.&X-X%X%X#XE.H.B.g.Y 2 ",
"z ] +.1.c.3.T Z u s  .b.l.3.i.i.$X6X7XwX6XH.-.{ i | ~.#X~.R.7.<.1.3.i.f.c.i.c.{.6XE.;.$XvXcXkX].K.Q U :.-.B Z ..M b b K o.p.N.(.",
"J N P ;.f.f.a.<.~.Y.@X1XwX7X,X}.7X:XJ.h.M.i.K 9 b b Z P 1.H.a.{ f.i.;.:.;.i.J.7X{.g.R U U U d.'.).g.t.i.-.| -.5.3.+.] K g 2 q F ",
"j $ p R U 3.[.&XY.Y.Q.B.a.c.'.|.O.=.L w h G G G t.i.p.L J i.J.:X).,X7X8X8X8X8XlXN.o.;.;.=.Y g Y =.M.}._.J.[.E.5.+.{ ;.i.X.2 .   ",
"g J K R E K { T.1.| s u ] M.t.w e > e H H ~ y.y.Y 7 * 7 v w 7 w q q G =.=.Y K W (.K.h.r.W G h 9 Y Q i.K.H.:.j 1 9 p N W X.o.Q G ",
"X.K j U ;.R a s B.m.Q.;X>X).O.e > r ^ / / ~ / ~ y.H * : e e ; O X O # * = = - 2 w r.h.=.Y ! O.Y g 9 0 R H.$XT.3.n b R ;.O.o.t.g.",
"3 k R R b = - n ..5.b.Y.a.j o   : , t t > @ o > > e y ; O X o : o = - - - 5 7 ; X * v Q ! G w 2 = 1 1 1 g :.H.).M.;.W O.u.p.O.n ",
"] I n 9 * o = a s ` | z 1 = 7 H O @ X + O X O e ~ y.y.! y ; : - h h q 2 = = # o q # # 7 h w h Y j g 8 = 1 j K K @.K 5 = q O.u.L ",
"X.N 7 1 - - 1 = j | 5.+.N g w e ~ ! ^ y y > # ; H Y ! r.L 7 # * - 2 q F G h 2 - # 7 w q w L t.j.u.1.3.i.;.K q 1 F L W n < 1 J X.",
"s.O.n * . - { c.z.a.%.] g * o * e H L Y O.t.t.t.L Y t.j.h.=.W o.g - # = 5 q v L q G =.p.h.j.h.p.;.;.i.H.B.i.r.i.R h K @.X.F I @.",
"u.@.u.t.=.:.o.n P +.l.Y.J.;.h * X * 1 = = g n g s.;.o.;.c.M.i.o.R o.r.p.p.O.n 2 L g 5 g h g q w b 9 2 b ;.V.).).|.r.J F g 9 5 1 ",
"f 9 n Y K o.o.j 1.k.5.+.i.).J.t.G O.f.u.E 3.a.U a U { B b U 3.z.=.=.I h J ;.p.O.g K n = % 1 9 1 p K U g = 2 b Y I h.'.p.f 1 1 $ ",
"] @.u.@.N a T c.-.a.M.c.:.K { d.o.{ o.i.c.B.T.{.c.d.z.c.o.b a 9 1 K 1.i.+.b N f.[.i.R { +.:.i.B.P b g n U R K n n N X.s.i.I g f ",
"f k P @.f.M.c.a.J a j 3.[.[.m.3.R N N o.1.;.3.z.f.3.3.d.f.M.c.;.R j 1 a U ] o.i.-.H.$XE.a.i.H.{.H.J.d.R +.B.c.{ f.1.E J k g f f ",
". $ 5 n X.;.K 1 = p P { ] :.E.jX:XE.M.H.c.+.U T K B K T ;.M.M.;.M.:.{ i.c.H.H.M.M.H.B.M.T.{.{._.:X:X{._.E.M.{ 9 j n k 9 5 9 f 9 ",
"K L n 2 = 9 K O.V.i.1.f.`.[.H.d.d.f.c.H.J.B.c.c.B.H.E.E.J.`.[.T.a.{ { o.R +.f.c.a.;.;.i.a.i.M.[.$X[.E.J.c.1.U n f n K b 9 < < 1 ",
"6 q K W L G R ;.X.o.;.j.J.B.i.:.B.{.:X{.`._.H.d.z.f.J.{.[.$XrXkXjX>X7X7XE.i.K = = 4 j B b a n { ;.`.wX6X6XrX$XM.f.s.C.J.M.;.P J ",
"2 # % 2 h F L W n g j K =.f.M.M.3.H.`.E.E.`.E.M.{ B K :.3.d.J.[.gX>X$X$X$X:X{.J.i.d.d.d.J.{.E.d.z.z.d.a.c.`.>XrX$XC.u.M.).V.s.i.",
"L G L O.=.Q F w 7 h L W Q o.O.O.).`.[.$X:X:X&X{.6X[.E.T.B.M.B.z.J.[.{.$X6XwX6X:X7XkXkX7X>XrXwX:XE.3.1._.>X`.H.T.:XC.R n J I X.@.",
"=.j.(.N.r.W G h L ! p.N.'.|.}.'.).z.f.E.{.`.`.{.:X7XjXgX>X6X6X{.{.$XH.c.{.6X&X$XgXgXjXjX6X`.J.J.i.] T d.{.{.f.R ;.M._.T.z.;.R J ",
"h W p.h.=.F q 5 w W h.K.j.p.N.'.{.wXwX6XgXjXgXwXgX7X:X$X`.H.z.d._.M.f.c.E.$X>X:X6X:XT.M.{.6X`.f.i.i.J.`.f.a.B.J.i.s.K.{.{.M.o.K ",
"2 = = w W p.p.r.p.j.j.r.G F O.N.:XB.i._.gXrX:X6XjX:XJ.z.c.c.d.3.{ z.H.i.+.3.d.a.M.`.{.`.E.H.T.:X7XhXT.3.T.[.M.M.{.s.R I @.i.a.i.",
"p.o.h 2 2 g n L W L h 2 $ # - 2 f.J.f.o.i.`.$X{.`.6XgXwX:X$X:X:XjX{.H.H.c.;.o.;.c.i.3.B.{.[.{.gX7XrXrX:X{.$X`.d.;.;.;.o.I K o.i.",
"{ u.f.p.o.K J G = # % # 6 5 2 $ = B f.[.{.H.B.$X7X>X{.[.6XkXkX7XjXvXcX$XE.{.{.M.J.z.3.i.i.o.-.H.H.d.E.$XH.H.:X:XM.g.1.;.@.R n f ",
";.i.f.f.i.:.K g 9 g g 9 2 g K X.1.i.z.J.E.z.d.J.>XgXjX:XJ.H.`.$X`.H._.gXkX6X{.:X_.T.c.i.;.] U +.3.i.{ :.M.d.1.H.B.)._.M.@.J k k ",
"1.a.f.c.H.`.[.E.s.s.;.K k J X.@.K i.B.E.7XxXjXrXxXgXrXhXkXhX&XT.c.B.c.c.$XxX7Xc.J.T.M.c.J.H.3.o.{ +.o.o.d.M.f.1.u.R n R C.{.).s.",
"a +.c.H.z.d.3.-.`.`.V.f.i.a.;.] { N n +.3.+.d.6X6X>X6XrXrXwXkXvXwX6X:X$X`.T.{.gXE.$X$X`.T.f.-.:.1.{ i.f.;.H.7X:X7X{.c.o.I R @.;.",
"5.c.H.d.-.-.3.i.c.T.`.V.f.s.i.1.a.f.d.a.c.z.d.c._.H.E.7XkXhXrXrXxXcXkX7X:XrXkXkXxX>XJ.`.gXrXT.i.[.$X{.:X:Xc.:.f.f.J.{._.C.i.u.@."
};
